Latin-Mizra-SemiBold.ufo
<glyph name="asterisk" format="1">
  <advance width="404"/>
  <unicode hex="002A"/>
  <outline>
    <contour>
      <point x="215" y="264"/>
      <point x="245" y="269"/>
      <point x="284" y="283" type="curve"/>
      <point x="285" y="325"/>
      <point x="267" y="370"/>
      <point x="230" y="413" type="curve"/>
      <point x="288" y="412"/>
      <point x="323" y="410"/>
      <point x="371" y="399" type="curve"/>
      <point x="371" y="445"/>
      <point x="365" y="476"/>
      <point x="352" y="514" type="curve"/>
      <point x="309" y="515"/>
      <point x="265" y="498"/>
      <point x="222" y="460" type="curve"/>
      <point x="222" y="518"/>
      <point x="224" y="553"/>
      <point x="236" y="602" type="curve"/>
      <point x="188" y="602"/>
      <point x="158" y="597"/>
      <point x="119" y="583" type="curve"/>
      <point x="118" y="538"/>
      <point x="137" y="495"/>
      <point x="174" y="453" type="curve"/>
      <point x="117" y="452"/>
      <point x="82" y="455"/>
      <point x="33" y="466" type="curve"/>
      <point x="33" y="418"/>
      <point x="39" y="388"/>
      <point x="52" y="350" type="curve"/>
      <point x="96" y="349"/>
      <point x="140" y="367"/>
      <point x="182" y="404" type="curve"/>
      <point x="182" y="346"/>
      <point x="179" y="312"/>
      <point x="168" y="264" type="curve"/>
    </contour>
  </outline>
</glyph>
<glyph name="comma" format="1">
  <advance width="212"/>
  <unicode hex="002C"/>
  <outline>
    <contour>
      <point x="123" y="-58"/>
      <point x="168" y="21"/>
      <point x="176" y="108" type="curve"/>
      <point x="146" y="138" type="line"/>
      <point x="110" y="138"/>
      <point x="67" y="126"/>
      <point x="37" y="107" type="curve"/>
      <point x="49" y="81"/>
      <point x="55" y="49"/>
      <point x="55" y="13" type="curve" smooth="yes"/>
      <point x="55" y="-26"/>
      <point x="42" y="-65"/>
      <point x="20" y="-92" type="curve"/>
      <point x="46" y="-120" type="line"/>
    </contour>
  </outline>
</glyph>
<glyph name="hyphen" format="1">
  <advance width="410"/>
  <unicode hex="002D"/>
  <outline>
    <contour>
      <point x="84" y="135"/>
      <point x="149" y="144"/>
      <point x="211" y="144" type="curve" smooth="yes"/>
      <point x="261" y="144"/>
      <point x="312" y="143"/>
      <point x="368" y="139" type="curve"/>
      <point x="368" y="185"/>
      <point x="365" y="225"/>
      <point x="352" y="271" type="curve"/>
      <point x="326" y="261"/>
      <point x="260" y="252"/>
      <point x="200" y="252" type="curve" smooth="yes"/>
      <point x="149" y="252"/>
      <point x="99" y="253"/>
      <point x="42" y="257" type="curve"/>
      <point x="42" y="211"/>
      <point x="46" y="171"/>
      <point x="59" y="125" type="curve"/>
    </contour>
  </outline>
</glyph>
<glyph name="five" format="1">
  <advance width="477"/>
  <unicode hex="0035"/>
  <outline>
    <contour>
      <point x="364" y="-11"/>
      <point x="444" y="50"/>
      <point x="444" y="163" type="curve" smooth="yes"/>
      <point x="444" y="257"/>
      <point x="367" y="328"/>
      <point x="266" y="328" type="curve" smooth="yes"/>
      <point x="214" y="328"/>
      <point x="166" y="315"/>
      <point x="125" y="289" type="curve"/>
      <point x="134" y="407" type="line"/>
      <point x="188" y="409"/>
      <point x="235" y="410"/>
      <point x="290" y="410" type="curve" smooth="yes"/>
      <point x="345" y="410"/>
      <point x="374" y="405"/>
      <point x="397" y="392" type="curve"/>
      <point x="413" y="428"/>
      <point x="423" y="483"/>
      <point x="423" y="527" type="curve"/>
      <point x="391" y="520"/>
      <point x="321" y="516"/>
      <point x="241" y="516" type="curve" smooth="yes"/>
      <point x="158" y="516"/>
      <point x="114" y="519"/>
      <point x="87" y="527" type="curve"/>
      <point x="69" y="239" type="line"/>
      <point x="69" y="233"/>
      <point x="94" y="221"/>
      <point x="121" y="214" type="curve"/>
      <point x="167" y="246"/>
      <point x="213" y="265"/>
      <point x="244" y="265" type="curve"/>
      <point x="290" y="242"/>
      <point x="315" y="207"/>
      <point x="315" y="163" type="curve" smooth="yes"/>
      <point x="315" y="98"/>
      <point x="273" y="60"/>
      <point x="201" y="60" type="curve" smooth="yes"/>
      <point x="139" y="60"/>
      <point x="81" y="83"/>
      <point x="50" y="121" type="curve"/>
      <point x="38" y="92"/>
      <point x="33" y="68"/>
      <point x="33" y="35" type="curve"/>
      <point x="84" y="5"/>
      <point x="147" y="-11"/>
      <point x="215" y="-11" type="curve" smooth="yes"/>
    </contour>
  </outline>
</glyph>
<glyph name="eight" format="1">
  <advance width="525"/>
  <unicode hex="0038"/>
  <outline>
    <contour>
      <point x="387" y="-11"/>
      <point x="491" y="52"/>
      <point x="491" y="150" type="curve" smooth="yes"/>
      <point x="491" y="219"/>
      <point x="445" y="256"/>
      <point x="388" y="282" type="curve"/>
      <point x="442" y="312"/>
      <point x="474" y="354"/>
      <point x="474" y="402" type="curve" smooth="yes"/>
      <point x="474" y="481"/>
      <point x="397" y="533"/>
      <point x="283" y="533" type="curve" smooth="yes"/>
      <point x="146" y="533"/>
      <point x="50" y="470"/>
      <point x="50" y="381" type="curve" smooth="yes"/>
      <point x="50" y="317"/>
      <point x="85" y="279"/>
      <point x="131" y="251" type="curve"/>
      <point x="69" y="221"/>
      <point x="33" y="175"/>
      <point x="33" y="124" type="curve" smooth="yes"/>
      <point x="33" y="44"/>
      <point x="119" y="-11"/>
      <point x="246" y="-11" type="curve" smooth="yes"/>
    </contour>
    <contour>
      <point x="201" y="59"/>
      <point x="162" y="90"/>
      <point x="162" y="137" type="curve" smooth="yes"/>
      <point x="162" y="169"/>
      <point x="177" y="197"/>
      <point x="205" y="217" type="curve"/>
      <point x="283" y="190"/>
      <point x="363" y="175"/>
      <point x="363" y="127" type="curve" smooth="yes"/>
      <point x="363" y="85"/>
      <point x="323" y="59"/>
      <point x="259" y="59" type="curve" smooth="yes"/>
    </contour>
    <contour>
      <point x="239" y="334"/>
      <point x="173" y="352"/>
      <point x="173" y="400" type="curve" smooth="yes"/>
      <point x="173" y="443"/>
      <point x="215" y="469"/>
      <point x="272" y="469" type="curve"/>
      <point x="322" y="458"/>
      <point x="352" y="432"/>
      <point x="352" y="391" type="curve" smooth="yes"/>
      <point x="352" y="358"/>
      <point x="337" y="330"/>
      <point x="310" y="310" type="curve"/>
    </contour>
  </outline>
</glyph>
<glyph name="nine" format="1">
  <advance width="500"/>
  <unicode hex="0039"/>
  <outline>
    <contour>
      <point x="373" y="-11"/>
      <point x="470" y="95"/>
      <point x="470" y="288" type="curve" smooth="yes"/>
      <point x="470" y="435"/>
      <point x="378" y="533"/>
      <point x="242" y="533" type="curve" smooth="yes"/>
      <point x="117" y="533"/>
      <point x="30" y="453"/>
      <point x="30" y="339" type="curve" smooth="yes"/>
      <point x="30" y="235"/>
      <point x="101" y="166"/>
      <point x="206" y="166" type="curve" smooth="yes"/>
      <point x="253" y="166"/>
      <point x="298" y="181"/>
      <point x="339" y="210" type="curve"/>
      <point x="330" y="116"/>
      <point x="284" y="61"/>
      <point x="199" y="61" type="curve" smooth="yes"/>
      <point x="138" y="61"/>
      <point x="81" y="84"/>
      <point x="50" y="121" type="curve"/>
      <point x="38" y="90"/>
      <point x="33" y="66"/>
      <point x="33" y="35" type="curve"/>
      <point x="79" y="5"/>
      <point x="137" y="-11"/>
      <point x="198" y="-11" type="curve" smooth="yes"/>
    </contour>
    <contour>
      <point x="196" y="232"/>
      <point x="159" y="275"/>
      <point x="159" y="343" type="curve" smooth="yes"/>
      <point x="159" y="406"/>
      <point x="192" y="447"/>
      <point x="243" y="447" type="curve" smooth="yes"/>
      <point x="301" y="447"/>
      <point x="336" y="386"/>
      <point x="341" y="276" type="curve"/>
      <point x="316" y="257"/>
      <point x="287" y="242"/>
      <point x="256" y="232" type="curve"/>
    </contour>
  </outline>
</glyph>
<glyph name="greater" format="1">
  <advance width="533"/>
  <unicode hex="003E"/>
  <outline>
    <contour>
      <point x="208" y="121"/>
      <point x="355" y="181"/>
      <point x="471" y="221" type="curve"/>
      <point x="474" y="236"/>
      <point x="475" y="251"/>
      <point x="475" y="266" type="curve" smooth="yes"/>
      <point x="475" y="280"/>
      <point x="474" y="295"/>
      <point x="471" y="310" type="curve"/>
      <point x="355" y="351"/>
      <point x="208" y="410"/>
      <point x="97" y="461" type="curve"/>
      <point x="79" y="434"/>
      <point x="70" y="410"/>
      <point x="62" y="376" type="curve"/>
      <point x="354" y="266" type="line"/>
      <point x="62" y="155" type="line"/>
      <point x="69" y="125"/>
      <point x="80" y="95"/>
      <point x="97" y="70" type="curve"/>
    </contour>
  </outline>
</glyph>
<glyph name="question" format="1">
  <advance width="384"/>
  <unicode hex="003F"/>
  <outline>
    <contour>
      <point x="261" y="228"/>
      <point x="351" y="299"/>
      <point x="351" y="393" type="curve" smooth="yes"/>
      <point x="351" y="493"/>
      <point x="288" y="547"/>
      <point x="170" y="547" type="curve" smooth="yes"/>
      <point x="113" y="547"/>
      <point x="61" y="531"/>
      <point x="17" y="501" type="curve"/>
      <point x="17" y="468"/>
      <point x="21" y="444"/>
      <point x="31" y="415" type="curve"/>
      <point x="54" y="453"/>
      <point x="95" y="476"/>
      <point x="139" y="476" type="curve" smooth="yes"/>
      <point x="191" y="476"/>
      <point x="222" y="444"/>
      <point x="222" y="390" type="curve" smooth="yes"/>
      <point x="222" y="339"/>
      <point x="190" y="297"/>
      <point x="129" y="271" type="curve"/>
      <point x="151" y="214" type="line"/>
    </contour>
    <contour>
      <point x="193" y="11"/>
      <point x="220" y="38"/>
      <point x="246" y="70" type="curve"/>
      <point x="214" y="96"/>
      <point x="187" y="123"/>
      <point x="161" y="155" type="curve"/>
      <point x="129" y="129"/>
      <point x="102" y="102"/>
      <point x="76" y="70" type="curve"/>
      <point x="108" y="44"/>
      <point x="135" y="17"/>
      <point x="161" y="-15" type="curve"/>
    </contour>
  </outline>
</glyph>
<glyph name="at" format="1">
  <advance width="816"/>
  <unicode hex="0040"/>
  <outline>
    <contour>
      <point x="421" y="-124"/>
      <point x="465" y="-113"/>
      <point x="501" y="-94" type="curve"/>
      <point x="501" y="-70"/>
      <point x="497" y="-52"/>
      <point x="485" y="-31" type="curve"/>
      <point x="461" y="-49"/>
      <point x="417" y="-60"/>
      <point x="375" y="-60" type="curve" smooth="yes"/>
      <point x="220" y="-60"/>
      <point x="134" y="57"/>
      <point x="134" y="214" type="curve" smooth="yes"/>
      <point x="134" y="375"/>
      <point x="258" y="490"/>
      <point x="431" y="490" type="curve"/>
      <point x="593" y="465"/>
      <point x="688" y="359"/>
      <point x="688" y="206" type="curve" smooth="yes"/>
      <point x="688" y="104"/>
      <point x="646" y="60"/>
      <point x="612" y="60" type="curve" smooth="yes"/>
      <point x="583" y="60"/>
      <point x="559" y="76"/>
      <point x="559" y="136" type="curve" smooth="yes"/>
      <point x="559" y="195"/>
      <point x="567" y="243"/>
      <point x="567" y="292" type="curve" smooth="yes"/>
      <point x="567" y="363"/>
      <point x="518" y="402"/>
      <point x="429" y="402" type="curve" smooth="yes"/>
      <point x="365" y="402"/>
      <point x="299" y="369"/>
      <point x="262" y="320" type="curve"/>
      <point x="275" y="265" type="line"/>
      <point x="304" y="289"/>
      <point x="346" y="303"/>
      <point x="385" y="303" type="curve" smooth="yes"/>
      <point x="431" y="303"/>
      <point x="451" y="285"/>
      <point x="455" y="242" type="curve"/>
      <point x="315" y="232"/>
      <point x="246" y="194"/>
      <point x="246" y="125" type="curve" smooth="yes"/>
      <point x="246" y="81"/>
      <point x="274" y="48"/>
      <point x="334" y="48" type="curve" smooth="yes"/>
      <point x="370" y="48"/>
      <point x="415" y="63"/>
      <point x="455" y="86" type="curve"/>
      <point x="473" y="16"/>
      <point x="529" y="-12"/>
      <point x="585" y="-12" type="curve" smooth="yes"/>
      <point x="669" y="-12"/>
      <point x="767" y="64"/>
      <point x="767" y="251" type="curve" smooth="yes"/>
      <point x="767" y="458"/>
      <point x="633" y="595"/>
      <point x="432" y="595" type="curve" smooth="yes"/>
      <point x="207" y="595"/>
      <point x="48" y="438"/>
      <point x="48" y="212" type="curve" smooth="yes"/>
      <point x="48" y="11"/>
      <point x="178" y="-124"/>
      <point x="372" y="-124" type="curve" smooth="yes"/>
    </contour>
    <contour>
      <point x="372" y="115"/>
      <point x="363" y="132"/>
      <point x="363" y="147" type="curve" smooth="yes"/>
      <point x="363" y="178"/>
      <point x="396" y="197"/>
      <point x="454" y="202" type="curve"/>
      <point x="451" y="179"/>
      <point x="449" y="154"/>
      <point x="449" y="130" type="curve"/>
      <point x="429" y="118"/>
      <point x="405" y="110"/>
      <point x="384" y="107" type="curve"/>
    </contour>
  </outline>
</glyph>
<glyph name="D" format="1">
  <advance width="585"/>
  <unicode hex="0044"/>
  <outline>
    <contour>
      <point x="427" y="-6"/>
      <point x="552" y="105"/>
      <point x="552" y="266" type="curve" smooth="yes"/>
      <point x="552" y="437"/>
      <point x="449" y="532"/>
      <point x="265" y="532" type="curve" smooth="yes"/>
      <point x="183" y="532"/>
      <point x="97" y="521"/>
      <point x="50" y="505" type="curve"/>
      <point x="61" y="478"/>
      <point x="66" y="408"/>
      <point x="66" y="300" type="curve" smooth="yes"/>
      <point x="66" y="199"/>
      <point x="61" y="73"/>
      <point x="55" y="10" type="curve"/>
      <point x="107" y="0"/>
      <point x="181" y="-6"/>
      <point x="245" y="-6" type="curve" smooth="yes"/>
    </contour>
    <contour>
      <point x="267" y="61"/>
      <point x="229" y="69"/>
      <point x="189" y="81" type="curve"/>
      <point x="186" y="118"/>
      <point x="185" y="167"/>
      <point x="185" y="227" type="curve" smooth="yes"/>
      <point x="185" y="297"/>
      <point x="187" y="380"/>
      <point x="191" y="443" type="curve"/>
      <point x="208" y="448"/>
      <point x="226" y="451"/>
      <point x="244" y="451" type="curve" smooth="yes"/>
      <point x="357" y="451"/>
      <point x="423" y="391"/>
      <point x="423" y="248" type="curve" smooth="yes"/>
      <point x="423" y="162"/>
      <point x="365" y="74"/>
      <point x="292" y="61" type="curve"/>
    </contour>
    <contour>
      <point x="174" y="264" type="move" name="center"/>
    </contour>
    <contour>
      <point x="293" y="0" type="move" name="bottom"/>
    </contour>
    <contour>
      <point x="293" y="527" type="move" name="top"/>
    </contour>
  </outline>
</glyph>
<glyph name="E" format="1">
  <advance width="472"/>
  <unicode hex="0045"/>
  <outline>
    <contour>
      <point x="95" y="2"/>
      <point x="156" y="4"/>
      <point x="228" y="4" type="curve" smooth="yes"/>
      <point x="299" y="4"/>
      <point x="372" y="2"/>
      <point x="421" y="-3" type="curve"/>
      <point x="434" y="17"/>
      <point x="442" y="81"/>
      <point x="442" y="123" type="curve"/>
      <point x="401" y="106"/>
      <point x="333" y="96"/>
      <point x="273" y="96" type="curve" smooth="yes"/>
      <point x="244" y="96"/>
      <point x="213" y="99"/>
      <point x="188" y="103" type="curve"/>
      <point x="186" y="136"/>
      <point x="185" y="177"/>
      <point x="185" y="226" type="curve"/>
      <point x="242" y="227"/>
      <point x="301" y="224"/>
      <point x="386" y="219" type="curve"/>
      <point x="388" y="235"/>
      <point x="390" y="252"/>
      <point x="390" y="266" type="curve" smooth="yes"/>
      <point x="390" y="281"/>
      <point x="388" y="297"/>
      <point x="386" y="312" type="curve"/>
      <point x="347" y="305"/>
      <point x="320" y="301"/>
      <point x="247" y="301" type="curve" smooth="yes"/>
      <point x="227" y="301"/>
      <point x="206" y="301"/>
      <point x="186" y="302" type="curve"/>
      <point x="186" y="343"/>
      <point x="188" y="385"/>
      <point x="190" y="422" type="curve"/>
      <point x="214" y="426"/>
      <point x="242" y="428"/>
      <point x="268" y="428" type="curve" smooth="yes"/>
      <point x="321" y="428"/>
      <point x="381" y="419"/>
      <point x="417" y="401" type="curve"/>
      <point x="430" y="420"/>
      <point x="438" y="485"/>
      <point x="438" y="527" type="curve"/>
      <point x="383" y="522"/>
      <point x="302" y="520"/>
      <point x="223" y="520" type="curve" smooth="yes"/>
      <point x="156" y="520"/>
      <point x="90" y="522"/>
      <point x="50" y="527" type="curve"/>
      <point x="63" y="478"/>
      <point x="66" y="425"/>
      <point x="66" y="300" type="curve" smooth="yes"/>
      <point x="66" y="189"/>
      <point x="62" y="82"/>
      <point x="55" y="-3" type="curve"/>
    </contour>
    <contour>
      <point x="421" y="17" type="move" name="ogonek"/>
    </contour>
    <contour>
      <point x="253" y="527" type="move" name="top"/>
    </contour>
    <contour>
      <point x="20" y="527" type="move" name="topleft"/>
    </contour>
    <contour>
      <point x="236" y="0" type="move" name="bottom"/>
    </contour>
  </outline>
</glyph>
<glyph name="H" format="1">
  <advance width="567"/>
  <unicode hex="0048"/>
  <outline>
    <contour>
      <point x="155" y="-6"/>
      <point x="178" y="-4"/>
      <point x="201" y="0" type="curve"/>
      <point x="190" y="29"/>
      <point x="185" y="102"/>
      <point x="185" y="224" type="curve"/>
      <point x="207" y="225"/>
      <point x="234" y="226"/>
      <point x="266" y="226" type="curve" smooth="yes"/>
      <point x="302" y="226"/>
      <point x="344" y="225"/>
      <point x="382" y="224" type="curve"/>
      <point x="380" y="140"/>
      <point x="376" y="52"/>
      <point x="372" y="0" type="curve"/>
      <point x="401" y="-4"/>
      <point x="427" y="-6"/>
      <point x="449" y="-6" type="curve" smooth="yes"/>
      <point x="472" y="-6"/>
      <point x="495" y="-4"/>
      <point x="517" y="0" type="curve"/>
      <point x="507" y="30"/>
      <point x="501" y="112"/>
      <point x="501" y="234" type="curve" smooth="yes"/>
      <point x="501" y="330"/>
      <point x="506" y="456"/>
      <point x="512" y="527" type="curve"/>
      <point x="485" y="531"/>
      <point x="462" y="533"/>
      <point x="441" y="533" type="curve" smooth="yes"/>
      <point x="416" y="533"/>
      <point x="390" y="531"/>
      <point x="367" y="527" type="curve"/>
      <point x="377" y="498"/>
      <point x="383" y="425"/>
      <point x="383" y="302" type="curve"/>
      <point x="363" y="301"/>
      <point x="340" y="301"/>
      <point x="314" y="301" type="curve" smooth="yes"/>
      <point x="270" y="301"/>
      <point x="224" y="302"/>
      <point x="186" y="303" type="curve"/>
      <point x="187" y="387"/>
      <point x="191" y="475"/>
      <point x="196" y="527" type="curve"/>
      <point x="169" y="531"/>
      <point x="145" y="533"/>
      <point x="125" y="533" type="curve" smooth="yes"/>
      <point x="99" y="533"/>
      <point x="73" y="531"/>
      <point x="50" y="527" type="curve"/>
      <point x="60" y="497"/>
      <point x="66" y="415"/>
      <point x="66" y="293" type="curve" smooth="yes"/>
      <point x="66" y="197"/>
      <point x="61" y="71"/>
      <point x="55" y="0" type="curve"/>
      <point x="84" y="-4"/>
      <point x="110" y="-6"/>
      <point x="133" y="-6" type="curve" smooth="yes"/>
    </contour>
    <contour>
      <point x="284" y="414" type="move" name="center"/>
    </contour>
    <contour>
      <point x="284" y="527" type="move" name="top"/>
    </contour>
    <contour>
      <point x="17" y="527" type="move" name="topleft"/>
    </contour>
    <contour>
      <point x="284" y="0" type="move" name="bottom"/>
    </contour>
  </outline>
</glyph>
<glyph name="J" format="1">
  <advance width="323"/>
  <unicode hex="004A"/>
  <outline>
    <contour>
      <point x="212" y="-12"/>
      <point x="276" y="69"/>
      <point x="276" y="227" type="curve" smooth="yes"/>
      <point x="276" y="387"/>
      <point x="278" y="478"/>
      <point x="283" y="527" type="curve"/>
      <point x="255" y="531"/>
      <point x="230" y="533"/>
      <point x="208" y="533" type="curve" smooth="yes"/>
      <point x="185" y="533"/>
      <point x="161" y="531"/>
      <point x="137" y="527" type="curve"/>
      <point x="150" y="495"/>
      <point x="157" y="414"/>
      <point x="157" y="300" type="curve" smooth="yes"/>
      <point x="157" y="114"/>
      <point x="153" y="83"/>
      <point x="126" y="64" type="curve"/>
      <point x="100" y="64"/>
      <point x="58" y="87"/>
      <point x="18" y="125" type="curve"/>
      <point x="-1" y="96"/>
      <point x="-15" y="43"/>
      <point x="-15" y="2" type="curve"/>
      <point x="15" y="-7"/>
      <point x="50" y="-12"/>
      <point x="88" y="-12" type="curve" smooth="yes"/>
    </contour>
    <contour>
      <point x="208" y="527" type="move" name="top"/>
    </contour>
    <contour>
      <point x="157" y="0" type="move" name="bottom"/>
    </contour>
  </outline>
</glyph>
<glyph name="L" format="1">
  <advance width="422"/>
  <unicode hex="004C"/>
  <outline>
    <contour>
      <point x="97" y="2"/>
      <point x="158" y="4"/>
      <point x="231" y="4" type="curve" smooth="yes"/>
      <point x="292" y="4"/>
      <point x="353" y="2"/>
      <point x="394" y="-3" type="curve"/>
      <point x="406" y="15"/>
      <point x="415" y="75"/>
      <point x="415" y="116" type="curve"/>
      <point x="381" y="100"/>
      <point x="326" y="89"/>
      <point x="276" y="89" type="curve" smooth="yes"/>
      <point x="247" y="89"/>
      <point x="214" y="92"/>
      <point x="188" y="96" type="curve"/>
      <point x="186" y="129"/>
      <point x="185" y="171"/>
      <point x="185" y="227" type="curve" smooth="yes"/>
      <point x="185" y="329"/>
      <point x="190" y="460"/>
      <point x="196" y="527" type="curve"/>
      <point x="167" y="531"/>
      <point x="143" y="533"/>
      <point x="121" y="533" type="curve" smooth="yes"/>
      <point x="98" y="533"/>
      <point x="74" y="531"/>
      <point x="50" y="527" type="curve"/>
      <point x="61" y="497"/>
      <point x="66" y="415"/>
      <point x="66" y="293" type="curve" smooth="yes"/>
      <point x="66" y="184"/>
      <point x="62" y="91"/>
      <point x="55" y="-3" type="curve"/>
    </contour>
    <contour>
      <point x="131" y="264" type="move" name="center"/>
    </contour>
    <contour>
      <point x="128" y="527" type="move" name="top"/>
    </contour>
    <contour>
      <point x="308" y="407" type="move" name="topright"/>
    </contour>
    <contour>
      <point x="215" y="0" type="move" name="bottom"/>
    </contour>
  </outline>
</glyph>
<glyph name="R" format="1">
  <advance width="515"/>
  <unicode hex="0052"/>
  <outline>
    <contour>
      <point x="155" y="-6"/>
      <point x="178" y="-4"/>
      <point x="201" y="0" type="curve"/>
      <point x="192" y="26"/>
      <point x="186" y="89"/>
      <point x="185" y="184" type="curve"/>
      <point x="205" y="181"/>
      <point x="233" y="179"/>
      <point x="256" y="180" type="curve"/>
      <point x="301" y="95"/>
      <point x="334" y="28"/>
      <point x="347" y="-6" type="curve"/>
      <point x="405" y="-6"/>
      <point x="452" y="-1"/>
      <point x="500" y="15" type="curve"/>
      <point x="464" y="45"/>
      <point x="419" y="120"/>
      <point x="376" y="207" type="curve"/>
      <point x="437" y="238"/>
      <point x="475" y="291"/>
      <point x="475" y="356" type="curve" smooth="yes"/>
      <point x="475" y="469"/>
      <point x="396" y="532"/>
      <point x="255" y="532" type="curve" smooth="yes"/>
      <point x="178" y="532"/>
      <point x="94" y="521"/>
      <point x="50" y="505" type="curve"/>
      <point x="61" y="477"/>
      <point x="66" y="405"/>
      <point x="66" y="293" type="curve" smooth="yes"/>
      <point x="66" y="195"/>
      <point x="61" y="65"/>
      <point x="55" y="0" type="curve"/>
      <point x="84" y="-4"/>
      <point x="110" y="-6"/>
      <point x="133" y="-6" type="curve" smooth="yes"/>
    </contour>
    <contour>
      <point x="259" y="247"/>
      <point x="223" y="255"/>
      <point x="185" y="267" type="curve"/>
      <point x="186" y="328"/>
      <point x="188" y="394"/>
      <point x="191" y="446" type="curve"/>
      <point x="205" y="449"/>
      <point x="219" y="451"/>
      <point x="234" y="451" type="curve" smooth="yes"/>
      <point x="305" y="451"/>
      <point x="346" y="420"/>
      <point x="346" y="348" type="curve" smooth="yes"/>
      <point x="346" y="301"/>
      <point x="318" y="267"/>
      <point x="282" y="247" type="curve"/>
    </contour>
    <contour>
      <point x="259" y="527" type="move" name="top"/>
    </contour>
    <contour>
      <point x="259" y="0" type="move" name="bottom"/>
    </contour>
  </outline>
</glyph>
<glyph name="S" format="1">
  <advance width="464"/>
  <unicode hex="0053"/>
  <outline>
    <contour>
      <point x="363" y="-11"/>
      <point x="434" y="45"/>
      <point x="434" y="141" type="curve" smooth="yes"/>
      <point x="434" y="317"/>
      <point x="163" y="311"/>
      <point x="163" y="407" type="curve" smooth="yes"/>
      <point x="163" y="438"/>
      <point x="187" y="456"/>
      <point x="206" y="460" type="curve"/>
      <point x="250" y="460"/>
      <point x="317" y="425"/>
      <point x="374" y="381" type="curve"/>
      <point x="396" y="410"/>
      <point x="415" y="470"/>
      <point x="415" y="509" type="curve"/>
      <point x="371" y="525"/>
      <point x="314" y="533"/>
      <point x="251" y="533" type="curve" smooth="yes"/>
      <point x="118" y="533"/>
      <point x="34" y="472"/>
      <point x="34" y="384" type="curve" smooth="yes"/>
      <point x="34" y="213"/>
      <point x="305" y="209"/>
      <point x="305" y="121" type="curve" smooth="yes"/>
      <point x="305" y="83"/>
      <point x="272" y="60"/>
      <point x="211" y="60" type="curve" smooth="yes"/>
      <point x="144" y="60"/>
      <point x="81" y="79"/>
      <point x="47" y="111" type="curve"/>
      <point x="35" y="84"/>
      <point x="30" y="60"/>
      <point x="30" y="25" type="curve"/>
      <point x="79" y="3"/>
      <point x="143" y="-11"/>
      <point x="218" y="-11" type="curve" smooth="yes"/>
    </contour>
    <contour>
      <point x="228" y="527" type="move" name="top"/>
    </contour>
    <contour>
      <point x="228" y="0" type="move" name="bottom"/>
    </contour>
  </outline>
</glyph>
<glyph name="V" format="1">
  <advance width="523"/>
  <unicode hex="0056"/>
  <outline>
    <contour>
      <point x="355" y="27" type="line"/>
      <point x="396" y="168"/>
      <point x="474" y="409"/>
      <point x="518" y="533" type="curve"/>
      <point x="477" y="533"/>
      <point x="446" y="530"/>
      <point x="412" y="522" type="curve"/>
      <point x="424" y="489"/>
      <point x="389" y="358"/>
      <point x="300" y="89" type="curve"/>
      <point x="281" y="122"/>
      <point x="259" y="175"/>
      <point x="230" y="260" type="curve" smooth="yes"/>
      <point x="200" y="350"/>
      <point x="171" y="471"/>
      <point x="161" y="533" type="curve"/>
      <point x="99" y="533"/>
      <point x="52" y="526"/>
      <point x="5" y="512" type="curve"/>
      <point x="134" y="250"/>
      <point x="149" y="-9"/>
      <point x="256" y="-9" type="curve"/>
    </contour>
    <contour>
      <point x="262" y="527" type="move" name="top"/>
    </contour>
    <contour>
      <point x="262" y="0" type="move" name="bottom"/>
    </contour>
  </outline>
</glyph>
<glyph name="X" format="1">
  <advance width="522"/>
  <unicode hex="0058"/>
  <outline>
    <contour>
      <point x="38" y="-6"/>
      <point x="74" y="-5"/>
      <point x="120" y="0" type="curve"/>
      <point x="126" y="25"/>
      <point x="161" y="87"/>
      <point x="244" y="192" type="curve"/>
      <point x="307" y="97"/>
      <point x="360" y="13"/>
      <point x="369" y="-6" type="curve"/>
      <point x="429" y="-6"/>
      <point x="476" y="-1"/>
      <point x="523" y="15" type="curve"/>
      <point x="498" y="35"/>
      <point x="406" y="163"/>
      <point x="322" y="288" type="curve"/>
      <point x="379" y="364"/>
      <point x="459" y="464"/>
      <point x="523" y="533" type="curve"/>
      <point x="481" y="533"/>
      <point x="445" y="532"/>
      <point x="399" y="527" type="curve"/>
      <point x="393" y="502"/>
      <point x="360" y="444"/>
      <point x="283" y="345" type="curve"/>
      <point x="223" y="436"/>
      <point x="173" y="515"/>
      <point x="165" y="533" type="curve"/>
      <point x="105" y="533"/>
      <point x="57" y="528"/>
      <point x="11" y="512" type="curve"/>
      <point x="36" y="493"/>
      <point x="123" y="371"/>
      <point x="205" y="249" type="curve"/>
      <point x="147" y="173"/>
      <point x="63" y="66"/>
      <point x="-4" y="-6" type="curve"/>
    </contour>
  </outline>
</glyph>
<glyph name="asciicircum" format="1">
  <advance width="392"/>
  <unicode hex="005E"/>
  <outline>
    <contour>
      <point x="195" y="493" type="line"/>
      <point x="308" y="352" type="line"/>
      <point x="336" y="370"/>
      <point x="356" y="388"/>
      <point x="382" y="421" type="curve"/>
      <point x="322" y="479"/>
      <point x="274" y="530"/>
      <point x="215" y="603" type="curve"/>
      <point x="177" y="603" type="line"/>
      <point x="118" y="530"/>
      <point x="70" y="479"/>
      <point x="10" y="421" type="curve"/>
      <point x="36" y="388"/>
      <point x="56" y="370"/>
      <point x="84" y="352" type="curve"/>
    </contour>
  </outline>
</glyph>
<glyph name="underscore" format="1">
  <advance width="496"/>
  <unicode hex="005F"/>
  <outline>
    <contour>
      <point x="94" y="-118"/>
      <point x="178" y="-109"/>
      <point x="256" y="-109" type="curve" smooth="yes"/>
      <point x="318" y="-109"/>
      <point x="383" y="-110"/>
      <point x="454" y="-114" type="curve"/>
      <point x="454" y="-67"/>
      <point x="450" y="-27"/>
      <point x="435" y="19" type="curve"/>
      <point x="401" y="9"/>
      <point x="318" y="0"/>
      <point x="241" y="0" type="curve" smooth="yes"/>
      <point x="177" y="0"/>
      <point x="114" y="1"/>
      <point x="42" y="5" type="curve"/>
      <point x="42" y="-41"/>
      <point x="46" y="-81"/>
      <point x="62" y="-128" type="curve"/>
    </contour>
  </outline>
</glyph>
<glyph name="a" format="1">
  <advance width="437"/>
  <unicode hex="0061"/>
  <outline>
    <contour>
      <point x="166" y="-11"/>
      <point x="218" y="8"/>
      <point x="265" y="38" type="curve"/>
      <point x="273" y="17"/>
      <point x="286" y="1"/>
      <point x="305" y="-11" type="curve"/>
      <point x="342" y="-7"/>
      <point x="381" y="7"/>
      <point x="411" y="27" type="curve"/>
      <point x="380" y="60"/>
      <point x="372" y="83"/>
      <point x="372" y="132" type="curve" smooth="yes"/>
      <point x="372" y="179"/>
      <point x="381" y="231"/>
      <point x="381" y="284" type="curve" smooth="yes"/>
      <point x="381" y="370"/>
      <point x="327" y="418"/>
      <point x="229" y="418" type="curve" smooth="yes"/>
      <point x="160" y="418"/>
      <point x="86" y="378"/>
      <point x="46" y="319" type="curve"/>
      <point x="54" y="266" type="line"/>
      <point x="88" y="289"/>
      <point x="137" y="303"/>
      <point x="182" y="303" type="curve" smooth="yes"/>
      <point x="236" y="303"/>
      <point x="259" y="281"/>
      <point x="261" y="226" type="curve"/>
      <point x="104" y="214"/>
      <point x="27" y="167"/>
      <point x="27" y="83" type="curve" smooth="yes"/>
      <point x="27" y="28"/>
      <point x="60" y="-11"/>
      <point x="124" y="-11" type="curve" smooth="yes"/>
    </contour>
    <contour>
      <point x="161" y="64"/>
      <point x="151" y="85"/>
      <point x="151" y="105" type="curve" smooth="yes"/>
      <point x="151" y="147"/>
      <point x="190" y="174"/>
      <point x="260" y="180" type="curve"/>
      <point x="258" y="146"/>
      <point x="254" y="124"/>
      <point x="254" y="94" type="curve" smooth="yes"/>
      <point x="254" y="84" type="line"/>
      <point x="230" y="68"/>
      <point x="202" y="56"/>
      <point x="176" y="53" type="curve"/>
    </contour>
    <contour>
      <point x="355" y="0" type="move" name="ogonek"/>
    </contour>
    <contour>
      <point x="219" y="0" type="move" name="bottom"/>
    </contour>
    <contour>
      <point x="219" y="407" type="move" name="top"/>
    </contour>
  </outline>
</glyph>
<glyph name="b" format="1">
  <advance width="482"/>
  <unicode hex="0062"/>
  <outline>
    <contour>
      <point x="379" y="-9"/>
      <point x="452" y="70"/>
      <point x="452" y="212" type="curve" smooth="yes"/>
      <point x="452" y="339"/>
      <point x="394" y="410"/>
      <point x="292" y="410" type="curve" smooth="yes"/>
      <point x="247" y="410"/>
      <point x="204" y="394"/>
      <point x="167" y="366" type="curve"/>
      <point x="169" y="440"/>
      <point x="173" y="515"/>
      <point x="177" y="547" type="curve"/>
      <point x="119" y="547"/>
      <point x="78" y="541"/>
      <point x="33" y="527" type="curve"/>
      <point x="45" y="488"/>
      <point x="50" y="427"/>
      <point x="50" y="333" type="curve" smooth="yes"/>
      <point x="50" y="243"/>
      <point x="46" y="75"/>
      <point x="40" y="5" type="curve"/>
      <point x="60" y="2"/>
      <point x="76" y="0"/>
      <point x="93" y="0" type="curve"/>
      <point x="117" y="39" type="line"/>
      <point x="149" y="9"/>
      <point x="195" y="-9"/>
      <point x="248" y="-9" type="curve" smooth="yes"/>
    </contour>
    <contour>
      <point x="208" y="51"/>
      <point x="188" y="60"/>
      <point x="170" y="79" type="curve"/>
      <point x="165" y="103"/>
      <point x="163" y="136"/>
      <point x="163" y="192" type="curve" smooth="yes"/>
      <point x="163" y="211"/>
      <point x="164" y="248"/>
      <point x="165" y="291" type="curve"/>
      <point x="192" y="306"/>
      <point x="225" y="314"/>
      <point x="255" y="314" type="curve"/>
      <point x="302" y="293"/>
      <point x="329" y="244"/>
      <point x="329" y="171" type="curve" smooth="yes"/>
      <point x="329" y="93"/>
      <point x="295" y="51"/>
      <point x="231" y="51" type="curve" smooth="yes"/>
    </contour>
    <contour>
      <point x="243" y="407" type="move" name="top"/>
    </contour>
    <contour>
      <point x="243" y="0" type="move" name="bottom"/>
    </contour>
  </outline>
</glyph>
<glyph name="c" format="1">
  <advance width="403"/>
  <unicode hex="0063"/>
  <outline>
    <contour>
      <point x="278" y="-11"/>
      <point x="345" y="22"/>
      <point x="381" y="71" type="curve"/>
      <point x="373" y="131" type="line"/>
      <point x="344" y="107"/>
      <point x="301" y="94"/>
      <point x="256" y="94" type="curve" smooth="yes"/>
      <point x="181" y="94"/>
      <point x="151" y="137"/>
      <point x="151" y="216" type="curve" smooth="yes"/>
      <point x="151" y="272"/>
      <point x="173" y="320"/>
      <point x="207" y="342" type="curve"/>
      <point x="239" y="342"/>
      <point x="288" y="316"/>
      <point x="338" y="271" type="curve"/>
      <point x="353" y="308"/>
      <point x="368" y="365"/>
      <point x="368" y="394" type="curve"/>
      <point x="334" y="412"/>
      <point x="294" y="418"/>
      <point x="255" y="418" type="curve" smooth="yes"/>
      <point x="120" y="418"/>
      <point x="27" y="325"/>
      <point x="27" y="191" type="curve" smooth="yes"/>
      <point x="27" y="61"/>
      <point x="94" y="-11"/>
      <point x="214" y="-11" type="curve" smooth="yes"/>
    </contour>
    <contour>
      <point x="210" y="407" type="move" name="top"/>
    </contour>
    <contour>
      <point x="200" y="0" type="move" name="bottom"/>
    </contour>
  </outline>
</glyph>
<glyph name="d" format="1">
  <advance width="500"/>
  <unicode hex="0064"/>
  <outline>
    <contour>
      <point x="246" y="-12"/>
      <point x="290" y="7"/>
      <point x="325" y="39" type="curve"/>
      <point x="332" y="18"/>
      <point x="344" y="2"/>
      <point x="361" y="-11" type="curve"/>
      <point x="401" y="-6"/>
      <point x="442" y="10"/>
      <point x="473" y="34" type="curve"/>
      <point x="442" y="73"/>
      <point x="434" y="99"/>
      <point x="434" y="159" type="curve" smooth="yes"/>
      <point x="434" y="338"/>
      <point x="439" y="480"/>
      <point x="446" y="547" type="curve"/>
      <point x="396" y="547"/>
      <point x="348" y="543"/>
      <point x="303" y="527" type="curve"/>
      <point x="312" y="494"/>
      <point x="318" y="448"/>
      <point x="320" y="384" type="curve"/>
      <point x="286" y="407"/>
      <point x="249" y="418"/>
      <point x="208" y="418" type="curve" smooth="yes"/>
      <point x="94" y="418"/>
      <point x="35" y="342"/>
      <point x="35" y="196" type="curve" smooth="yes"/>
      <point x="35" y="59"/>
      <point x="93" y="-12"/>
      <point x="203" y="-12" type="curve" smooth="yes"/>
    </contour>
    <contour>
      <point x="189" y="63"/>
      <point x="159" y="113"/>
      <point x="159" y="183" type="curve" smooth="yes"/>
      <point x="159" y="269"/>
      <point x="191" y="311"/>
      <point x="255" y="311" type="curve" smooth="yes"/>
      <point x="279" y="311"/>
      <point x="302" y="305"/>
      <point x="322" y="295" type="curve"/>
      <point x="322" y="225"/>
      <point x="318" y="156"/>
      <point x="318" y="90" type="curve"/>
      <point x="292" y="70"/>
      <point x="264" y="57"/>
      <point x="237" y="53" type="curve"/>
    </contour>
    <contour>
      <point x="359" y="470" type="move" name="center"/>
    </contour>
    <contour>
      <point x="252" y="407" type="move" name="top"/>
    </contour>
    <contour>
      <point x="545" y="407" type="move" name="topright"/>
    </contour>
    <contour>
      <point x="252" y="0" type="move" name="bottom"/>
    </contour>
  </outline>
</glyph>
<glyph name="g" format="1">
  <advance width="447"/>
  <unicode hex="0067"/>
  <outline>
    <contour>
      <point x="334" y="-180"/>
      <point x="430" y="-119"/>
      <point x="430" y="-38" type="curve" smooth="yes"/>
      <point x="430" y="26"/>
      <point x="385" y="62"/>
      <point x="302" y="68" type="curve" smooth="yes"/>
      <point x="114" y="78" type="line"/>
      <point x="114" y="103"/>
      <point x="150" y="119"/>
      <point x="207" y="119" type="curve" smooth="yes"/>
      <point x="320" y="119"/>
      <point x="400" y="184"/>
      <point x="400" y="277" type="curve" smooth="yes"/>
      <point x="400" y="300"/>
      <point x="395" y="321"/>
      <point x="386" y="340" type="curve"/>
      <point x="410" y="342"/>
      <point x="431" y="349"/>
      <point x="447" y="358" type="curve"/>
      <point x="447" y="381"/>
      <point x="435" y="425"/>
      <point x="421" y="454" type="curve"/>
      <point x="390" y="426"/>
      <point x="356" y="405"/>
      <point x="329" y="397" type="curve"/>
      <point x="303" y="411"/>
      <point x="272" y="418"/>
      <point x="235" y="418" type="curve" smooth="yes"/>
      <point x="124" y="418"/>
      <point x="47" y="353"/>
      <point x="47" y="260" type="curve" smooth="yes"/>
      <point x="47" y="209"/>
      <point x="71" y="168"/>
      <point x="110" y="144" type="curve"/>
      <point x="66" y="123"/>
      <point x="39" y="89"/>
      <point x="39" y="49" type="curve" smooth="yes"/>
      <point x="39" y="23"/>
      <point x="51" y="1"/>
      <point x="72" y="-11" type="curve"/>
      <point x="43" y="-47"/>
      <point x="25" y="-93"/>
      <point x="25" y="-137" type="curve"/>
      <point x="64" y="-164"/>
      <point x="128" y="-180"/>
      <point x="205" y="-180" type="curve" smooth="yes"/>
    </contour>
    <contour>
      <point x="179" y="-106"/>
      <point x="140" y="-91"/>
      <point x="116" y="-62" type="curve"/>
      <point x="119" y="-49"/>
      <point x="123" y="-37"/>
      <point x="128" y="-25" type="curve"/>
      <point x="269" y="-33" type="line" smooth="yes"/>
      <point x="315" y="-35"/>
      <point x="332" y="-41"/>
      <point x="332" y="-63" type="curve" smooth="yes"/>
      <point x="332" y="-87"/>
      <point x="291" y="-106"/>
      <point x="230" y="-106" type="curve" smooth="yes"/>
    </contour>
    <contour>
      <point x="183" y="177"/>
      <point x="157" y="205"/>
      <point x="157" y="248" type="curve" smooth="yes"/>
      <point x="157" y="293"/>
      <point x="188" y="326"/>
      <point x="230" y="326" type="curve"/>
      <point x="268" y="314"/>
      <point x="291" y="285"/>
      <point x="291" y="246" type="curve" smooth="yes"/>
      <point x="291" y="203"/>
      <point x="265" y="177"/>
      <point x="222" y="177" type="curve" smooth="yes"/>
    </contour>
    <contour>
      <point x="228" y="407" type="move" name="top"/>
    </contour>
    <contour>
      <point x="227" y="0" type="move" name="bottom"/>
    </contour>
  </outline>
</glyph>
<glyph name="h" format="1">
  <advance width="484"/>
  <unicode hex="0068"/>
  <outline>
    <contour>
      <point x="144" y="-6"/>
      <point x="168" y="-4"/>
      <point x="192" y="0" type="curve"/>
      <point x="178" y="29"/>
      <point x="171" y="104"/>
      <point x="171" y="220" type="curve" smooth="yes"/>
      <point x="171" y="240"/>
      <point x="172" y="269"/>
      <point x="172" y="282" type="curve"/>
      <point x="191" y="297"/>
      <point x="211" y="303"/>
      <point x="240" y="303" type="curve" smooth="yes"/>
      <point x="284" y="303"/>
      <point x="302" y="281"/>
      <point x="302" y="228" type="curve" smooth="yes"/>
      <point x="302" y="151"/>
      <point x="299" y="63"/>
      <point x="295" y="0" type="curve"/>
      <point x="318" y="-4"/>
      <point x="342" y="-6"/>
      <point x="362" y="-6" type="curve" smooth="yes"/>
      <point x="388" y="-6"/>
      <point x="421" y="-4"/>
      <point x="440" y="0" type="curve"/>
      <point x="427" y="29"/>
      <point x="420" y="82"/>
      <point x="420" y="150" type="curve" smooth="yes"/>
      <point x="420" y="181"/>
      <point x="424" y="251"/>
      <point x="424" y="280" type="curve" smooth="yes"/>
      <point x="424" y="365"/>
      <point x="391" y="418"/>
      <point x="307" y="418" type="curve" smooth="yes"/>
      <point x="255" y="418"/>
      <point x="208" y="394"/>
      <point x="173" y="355" type="curve"/>
      <point x="176" y="430"/>
      <point x="181" y="503"/>
      <point x="187" y="547" type="curve"/>
      <point x="130" y="547"/>
      <point x="87" y="541"/>
      <point x="43" y="527" type="curve"/>
      <point x="49" y="468"/>
      <point x="53" y="367"/>
      <point x="53" y="255" type="curve" smooth="yes"/>
      <point x="53" y="171"/>
      <point x="50" y="73"/>
      <point x="46" y="0" type="curve"/>
      <point x="74" y="-4"/>
      <point x="98" y="-6"/>
      <point x="120" y="-6" type="curve" smooth="yes"/>
    </contour>
    <contour>
      <point x="124" y="470" type="move" name="center"/>
    </contour>
    <contour>
      <point x="242" y="0" type="move" name="bottom"/>
    </contour>
    <contour>
      <point x="242" y="407" type="move" name="top"/>
    </contour>
  </outline>
</glyph>
<glyph name="l" format="1">
  <advance width="239"/>
  <unicode hex="006C"/>
  <outline>
    <contour>
      <point x="150" y="-9"/>
      <point x="185" y="0"/>
      <point x="214" y="27" type="curve"/>
      <point x="183" y="61"/>
      <point x="175" y="84"/>
      <point x="175" y="192" type="curve" smooth="yes"/>
      <point x="175" y="356"/>
      <point x="180" y="485"/>
      <point x="187" y="547" type="curve"/>
      <point x="136" y="547"/>
      <point x="93" y="543"/>
      <point x="43" y="527" type="curve"/>
      <point x="56" y="480"/>
      <point x="62" y="406"/>
      <point x="62" y="297" type="curve" smooth="yes"/>
      <point x="62" y="208"/>
      <point x="58" y="144"/>
      <point x="58" y="73" type="curve" smooth="yes"/>
      <point x="58" y="10"/>
      <point x="78" y="-9"/>
      <point x="128" y="-9" type="curve" smooth="yes"/>
    </contour>
    <contour>
      <point x="124" y="280" type="move" name="center"/>
    </contour>
    <contour>
      <point x="124" y="527" type="move" name="top"/>
    </contour>
    <contour>
      <point x="278" y="407" type="move" name="topright"/>
    </contour>
    <contour>
      <point x="124" y="0" type="move" name="bottom"/>
    </contour>
  </outline>
</glyph>
<glyph name="v" format="1">
  <advance width="442"/>
  <unicode hex="0076"/>
  <outline>
    <contour>
      <point x="312" y="27" type="line"/>
      <point x="343" y="140"/>
      <point x="392" y="304"/>
      <point x="437" y="413" type="curve"/>
      <point x="403" y="413"/>
      <point x="368" y="411"/>
      <point x="328" y="402" type="curve"/>
      <point x="342" y="369"/>
      <point x="329" y="316"/>
      <point x="259" y="89" type="curve"/>
      <point x="221" y="164"/>
      <point x="170" y="331"/>
      <point x="155" y="413" type="curve"/>
      <point x="100" y="413"/>
      <point x="48" y="408"/>
      <point x="5" y="392" type="curve"/>
      <point x="108" y="264"/>
      <point x="106" y="-9"/>
      <point x="220" y="-9" type="curve"/>
    </contour>
    <contour>
      <point x="229" y="407" type="move" name="top"/>
    </contour>
    <contour>
      <point x="229" y="0" type="move" name="bottom"/>
    </contour>
  </outline>
</glyph>
<glyph name="w" format="1">
  <advance width="705"/>
  <unicode hex="0077"/>
  <outline>
    <contour>
      <point x="298" y="23" type="line"/>
      <point x="316" y="85"/>
      <point x="336" y="153"/>
      <point x="357" y="218" type="curve"/>
      <point x="371" y="171"/>
      <point x="386" y="123"/>
      <point x="403" y="73" type="curve" smooth="yes"/>
      <point x="423" y="13"/>
      <point x="453" y="-9"/>
      <point x="488" y="-9" type="curve"/>
      <point x="570" y="23" type="line"/>
      <point x="607" y="153"/>
      <point x="657" y="311"/>
      <point x="700" y="413" type="curve"/>
      <point x="664" y="413"/>
      <point x="629" y="411"/>
      <point x="590" y="402" type="curve"/>
      <point x="604" y="370"/>
      <point x="592" y="321"/>
      <point x="521" y="99" type="curve"/>
      <point x="477" y="218"/>
      <point x="435" y="355"/>
      <point x="424" y="413" type="curve"/>
      <point x="369" y="413"/>
      <point x="319" y="408"/>
      <point x="277" y="392" type="curve"/>
      <point x="291" y="378"/>
      <point x="307" y="351"/>
      <point x="321" y="319" type="curve"/>
      <point x="310" y="274"/>
      <point x="289" y="205"/>
      <point x="252" y="90" type="curve"/>
      <point x="228" y="148"/>
      <point x="163" y="352"/>
      <point x="152" y="413" type="curve"/>
      <point x="97" y="413"/>
      <point x="46" y="408"/>
      <point x="5" y="392" type="curve"/>
      <point x="25" y="373"/>
      <point x="49" y="322"/>
      <point x="67" y="272" type="curve" smooth="yes"/>
      <point x="88" y="208"/>
      <point x="106" y="144"/>
      <point x="130" y="73" type="curve" smooth="yes"/>
      <point x="151" y="13"/>
      <point x="180" y="-9"/>
      <point x="215" y="-9" type="curve"/>
    </contour>
    <contour>
      <point x="353" y="407" type="move" name="top"/>
    </contour>
    <contour>
      <point x="353" y="0" type="move" name="bottom"/>
    </contour>
  </outline>
</glyph>
<glyph name="y" format="1">
  <advance width="491"/>
  <unicode hex="0079"/>
  <outline>
    <contour>
      <point x="343" y="-180"/>
      <point x="438" y="-125"/>
      <point x="438" y="0" type="curve" smooth="yes"/>
      <point x="438" y="33"/>
      <point x="434" y="91"/>
      <point x="434" y="167" type="curve" smooth="yes"/>
      <point x="434" y="279"/>
      <point x="436" y="359"/>
      <point x="441" y="417" type="curve"/>
      <point x="384" y="417"/>
      <point x="341" y="411"/>
      <point x="297" y="397" type="curve"/>
      <point x="309" y="372"/>
      <point x="316" y="320"/>
      <point x="316" y="257" type="curve" smooth="yes"/>
      <point x="316" y="237"/>
      <point x="317" y="207"/>
      <point x="318" y="141" type="curve"/>
      <point x="298" y="123"/>
      <point x="276" y="116"/>
      <point x="245" y="116" type="curve" smooth="yes"/>
      <point x="202" y="116"/>
      <point x="184" y="138"/>
      <point x="184" y="191" type="curve" smooth="yes"/>
      <point x="184" y="280"/>
      <point x="187" y="364"/>
      <point x="191" y="417" type="curve"/>
      <point x="145" y="417"/>
      <point x="75" y="408"/>
      <point x="46" y="396" type="curve"/>
      <point x="59" y="370"/>
      <point x="65" y="326"/>
      <point x="65" y="266" type="curve" smooth="yes"/>
      <point x="65" y="237"/>
      <point x="61" y="169"/>
      <point x="61" y="143" type="curve" smooth="yes"/>
      <point x="61" y="86"/>
      <point x="76" y="44"/>
      <point x="110" y="22" type="curve"/>
      <point x="62" y="-24"/>
      <point x="33" y="-86"/>
      <point x="33" y="-130" type="curve"/>
      <point x="73" y="-161"/>
      <point x="138" y="-180"/>
      <point x="217" y="-180" type="curve" smooth="yes"/>
    </contour>
    <contour>
      <point x="187" y="-110"/>
      <point x="153" y="-96"/>
      <point x="129" y="-73" type="curve"/>
      <point x="135" y="-47"/>
      <point x="147" y="-20"/>
      <point x="164" y="5" type="curve"/>
      <point x="227" y="3"/>
      <point x="280" y="25"/>
      <point x="320" y="73" type="curve"/>
      <point x="320" y="15" type="line" smooth="yes"/>
      <point x="320" y="-70"/>
      <point x="285" y="-110"/>
      <point x="221" y="-110" type="curve" smooth="yes"/>
    </contour>
    <contour>
      <point x="241" y="407" type="move" name="top"/>
    </contour>
    <contour>
      <point x="241" y="0" type="move" name="bottom"/>
    </contour>
  </outline>
</glyph>
<glyph name="z" format="1">
  <advance width="428"/>
  <unicode hex="007A"/>
  <outline>
    <contour>
      <point x="387" y="18"/>
      <point x="395" y="86"/>
      <point x="395" y="127" type="curve"/>
      <point x="359" y="110"/>
      <point x="301" y="101"/>
      <point x="249" y="101" type="curve" smooth="yes"/>
      <point x="229" y="101"/>
      <point x="207" y="102"/>
      <point x="190" y="104" type="curve"/>
      <point x="260" y="190"/>
      <point x="363" y="296"/>
      <point x="378" y="323" type="curve"/>
      <point x="384" y="332"/>
      <point x="387" y="345"/>
      <point x="387" y="361" type="curve" smooth="yes"/>
      <point x="387" y="378"/>
      <point x="379" y="406"/>
      <point x="356" y="429" type="curve"/>
      <point x="324" y="405"/>
      <point x="304" y="399"/>
      <point x="208" y="399" type="curve" smooth="yes"/>
      <point x="152" y="399"/>
      <point x="77" y="403"/>
      <point x="34" y="410" type="curve"/>
      <point x="34" y="369"/>
      <point x="45" y="314"/>
      <point x="60" y="275" type="curve"/>
      <point x="82" y="287"/>
      <point x="111" y="293"/>
      <point x="164" y="293" type="curve" smooth="yes"/>
      <point x="210" y="293"/>
      <point x="250" y="291"/>
      <point x="280" y="290" type="curve"/>
      <point x="181" y="177"/>
      <point x="91" y="82"/>
      <point x="36" y="32" type="curve"/>
      <point x="36" y="-3" type="line"/>
      <point x="113" y="2"/>
      <point x="327" y="2"/>
      <point x="375" y="-8" type="curve"/>
    </contour>
    <contour>
      <point x="212" y="407" type="move" name="top"/>
    </contour>
    <contour>
      <point x="212" y="0" type="move" name="bottom"/>
    </contour>
  </outline>
</glyph>
<glyph name="braceleft" format="1">
  <advance width="365"/>
  <unicode hex="007B"/>
  <outline>
    <contour>
      <point x="340" y="-104"/>
      <point x="342" y="-90"/>
      <point x="342" y="-77" type="curve" smooth="yes"/>
      <point x="342" y="-55"/>
      <point x="340" y="-35"/>
      <point x="337" y="-13" type="curve"/>
      <point x="295" y="-19"/>
      <point x="260" y="-22"/>
      <point x="231" y="-22" type="curve"/>
      <point x="216" y="-11"/>
      <point x="203" y="25"/>
      <point x="203" y="79" type="curve" smooth="yes"/>
      <point x="203" y="104"/>
      <point x="204" y="130"/>
      <point x="204" y="154" type="curve" smooth="yes"/>
      <point x="204" y="208"/>
      <point x="197" y="254"/>
      <point x="151" y="262" type="curve"/>
      <point x="151" y="266" type="line"/>
      <point x="197" y="274"/>
      <point x="204" y="320"/>
      <point x="204" y="374" type="curve" smooth="yes"/>
      <point x="204" y="398"/>
      <point x="203" y="424"/>
      <point x="203" y="449" type="curve" smooth="yes"/>
      <point x="203" y="503"/>
      <point x="216" y="539"/>
      <point x="231" y="550" type="curve"/>
      <point x="260" y="550"/>
      <point x="295" y="547"/>
      <point x="337" y="541" type="curve"/>
      <point x="340" y="563"/>
      <point x="342" y="583"/>
      <point x="342" y="605" type="curve" smooth="yes"/>
      <point x="342" y="618"/>
      <point x="340" y="632"/>
      <point x="337" y="647" type="curve"/>
      <point x="191" y="647"/>
      <point x="72" y="613"/>
      <point x="72" y="483" type="curve" smooth="yes"/>
      <point x="72" y="433"/>
      <point x="98" y="369"/>
      <point x="98" y="330" type="curve" smooth="yes"/>
      <point x="98" y="303"/>
      <point x="80" y="294"/>
      <point x="35" y="293" type="curve"/>
      <point x="35" y="235" type="line"/>
      <point x="80" y="234"/>
      <point x="98" y="225"/>
      <point x="98" y="198" type="curve" smooth="yes"/>
      <point x="98" y="157"/>
      <point x="72" y="95"/>
      <point x="72" y="45" type="curve" smooth="yes"/>
      <point x="72" y="-85"/>
      <point x="191" y="-119"/>
      <point x="337" y="-119" type="curve"/>
    </contour>
  </outline>
</glyph>
<glyph name="brokenbar" format="1">
  <advance width="351"/>
  <unicode hex="00A6"/>
  <outline>
    <contour>
      <point x="140" y="307" type="line"/>
      <point x="171" y="338"/>
      <point x="206" y="365"/>
      <point x="244" y="393" type="curve"/>
      <point x="244" y="452"/>
      <point x="250" y="581"/>
      <point x="256" y="630" type="curve"/>
      <point x="226" y="636"/>
      <point x="200" y="639"/>
      <point x="178" y="639" type="curve" smooth="yes"/>
      <point x="147" y="639"/>
      <point x="116" y="636"/>
      <point x="90" y="630" type="curve"/>
      <point x="100" y="576"/>
      <point x="106" y="493"/>
      <point x="106" y="307" type="curve"/>
    </contour>
    <contour>
      <point x="199" y="-111"/>
      <point x="230" y="-108"/>
      <point x="256" y="-102" type="curve"/>
      <point x="245" y="-48"/>
      <point x="240" y="35"/>
      <point x="240" y="221" type="curve"/>
      <point x="205" y="221" type="line"/>
      <point x="175" y="190"/>
      <point x="139" y="163"/>
      <point x="102" y="135" type="curve"/>
      <point x="102" y="76"/>
      <point x="96" y="-53"/>
      <point x="90" y="-102" type="curve"/>
      <point x="120" y="-108"/>
      <point x="145" y="-111"/>
      <point x="168" y="-111" type="curve" smooth="yes"/>
    </contour>
  </outline>
</glyph>
<glyph name="logicalnot" format="1">
  <advance width="533"/>
  <unicode hex="00AC"/>
  <outline>
    <contour>
      <point x="442" y="59"/>
      <point x="458" y="61"/>
      <point x="473" y="64" type="curve"/>
      <point x="469" y="141"/>
      <point x="468" y="209"/>
      <point x="468" y="312" type="curve"/>
      <point x="401" y="309"/>
      <point x="333" y="307"/>
      <point x="267" y="307" type="curve" smooth="yes"/>
      <point x="200" y="307"/>
      <point x="133" y="309"/>
      <point x="65" y="312" type="curve"/>
      <point x="62" y="296"/>
      <point x="60" y="279"/>
      <point x="60" y="265" type="curve" smooth="yes"/>
      <point x="60" y="250"/>
      <point x="62" y="234"/>
      <point x="65" y="219" type="curve"/>
      <point x="133" y="222"/>
      <point x="200" y="224"/>
      <point x="267" y="224" type="curve" smooth="yes"/>
      <point x="307" y="224"/>
      <point x="348" y="224"/>
      <point x="385" y="222" type="curve"/>
      <point x="385" y="170"/>
      <point x="383" y="109"/>
      <point x="381" y="64" type="curve"/>
      <point x="396" y="61"/>
      <point x="413" y="59"/>
      <point x="427" y="59" type="curve" smooth="yes"/>
    </contour>
  </outline>
</glyph>
<glyph name="registered" format="1">
  <advance width="542"/>
  <unicode hex="00AE"/>
  <outline>
    <contour>
      <point x="401" y="218"/>
      <point x="507" y="324"/>
      <point x="507" y="454" type="curve" smooth="yes"/>
      <point x="507" y="584"/>
      <point x="401" y="690"/>
      <point x="271" y="690" type="curve" smooth="yes"/>
      <point x="141" y="690"/>
      <point x="35" y="584"/>
      <point x="35" y="454" type="curve" smooth="yes"/>
      <point x="35" y="324"/>
      <point x="141" y="218"/>
      <point x="271" y="218" type="curve" smooth="yes"/>
    </contour>
    <contour>
      <point x="163" y="257"/>
      <point x="74" y="346"/>
      <point x="74" y="454" type="curve" smooth="yes"/>
      <point x="74" y="562"/>
      <point x="163" y="651"/>
      <point x="271" y="651" type="curve" smooth="yes"/>
      <point x="379" y="651"/>
      <point x="468" y="562"/>
      <point x="468" y="454" type="curve" smooth="yes"/>
      <point x="468" y="346"/>
      <point x="379" y="257"/>
      <point x="271" y="257" type="curve" smooth="yes"/>
    </contour>
    <contour>
      <point x="213" y="323"/>
      <point x="225" y="324"/>
      <point x="236" y="326" type="curve"/>
      <point x="231" y="339"/>
      <point x="228" y="370"/>
      <point x="227" y="419" type="curve"/>
      <point x="241" y="416"/>
      <point x="252" y="416"/>
      <point x="270" y="416" type="curve"/>
      <point x="294" y="374"/>
      <point x="312" y="339"/>
      <point x="319" y="323" type="curve"/>
      <point x="349" y="323"/>
      <point x="373" y="325"/>
      <point x="398" y="333" type="curve"/>
      <point x="378" y="348"/>
      <point x="355" y="386"/>
      <point x="332" y="429" type="curve"/>
      <point x="364" y="445"/>
      <point x="384" y="471"/>
      <point x="384" y="504" type="curve" smooth="yes"/>
      <point x="384" y="560"/>
      <point x="343" y="592"/>
      <point x="267" y="592" type="curve" smooth="yes"/>
      <point x="226" y="592"/>
      <point x="182" y="586"/>
      <point x="159" y="578" type="curve"/>
      <point x="165" y="564"/>
      <point x="168" y="528"/>
      <point x="168" y="472" type="curve" smooth="yes"/>
      <point x="168" y="423"/>
      <point x="165" y="358"/>
      <point x="162" y="326" type="curve"/>
      <point x="175" y="324"/>
      <point x="189" y="323"/>
      <point x="201" y="323" type="curve" smooth="yes"/>
    </contour>
    <contour>
      <point x="270" y="449"/>
      <point x="249" y="453"/>
      <point x="228" y="459" type="curve"/>
      <point x="231" y="549" type="line"/>
      <point x="240" y="551"/>
      <point x="248" y="552"/>
      <point x="256" y="552" type="curve" smooth="yes"/>
      <point x="296" y="552"/>
      <point x="320" y="536"/>
      <point x="320" y="500" type="curve" smooth="yes"/>
      <point x="320" y="476"/>
      <point x="303" y="459"/>
      <point x="282" y="449" type="curve"/>
    </contour>
  </outline>
</glyph>
<glyph name="degree" format="1">
  <advance width="360"/>
  <unicode hex="00B0"/>
  <outline>
    <contour>
      <point x="262" y="345"/>
      <point x="327" y="404"/>
      <point x="327" y="489" type="curve" smooth="yes"/>
      <point x="327" y="566"/>
      <point x="274" y="617"/>
      <point x="195" y="617" type="curve" smooth="yes"/>
      <point x="99" y="617"/>
      <point x="32" y="558"/>
      <point x="32" y="475" type="curve" smooth="yes"/>
      <point x="32" y="398"/>
      <point x="87" y="345"/>
      <point x="169" y="345" type="curve" smooth="yes"/>
    </contour>
    <contour>
      <point x="140" y="407"/>
      <point x="114" y="441"/>
      <point x="114" y="491" type="curve" smooth="yes"/>
      <point x="114" y="538"/>
      <point x="144" y="573"/>
      <point x="186" y="573" type="curve"/>
      <point x="223" y="566"/>
      <point x="245" y="535"/>
      <point x="245" y="488" type="curve" smooth="yes"/>
      <point x="245" y="438"/>
      <point x="219" y="407"/>
      <point x="178" y="407" type="curve" smooth="yes"/>
    </contour>
  </outline>
</glyph>
<glyph name="uni00B5" format="1">
  <advance width="494"/>
  <unicode hex="00B5"/>
  <outline>
    <contour>
      <point x="154" y="-178"/>
      <point x="188" y="-166"/>
      <point x="213" y="-142" type="curve"/>
      <point x="184" y="-105"/>
      <point x="176" y="-78"/>
      <point x="174" y="10" type="curve"/>
      <point x="192" y="2"/>
      <point x="206" y="0"/>
      <point x="226" y="0" type="curve" smooth="yes"/>
      <point x="264" y="0"/>
      <point x="302" y="18"/>
      <point x="319" y="40" type="curve"/>
      <point x="327" y="14"/>
      <point x="350" y="0"/>
      <point x="382" y="0" type="curve" smooth="yes"/>
      <point x="408" y="0"/>
      <point x="438" y="12"/>
      <point x="467" y="34" type="curve"/>
      <point x="437" y="58"/>
      <point x="428" y="82"/>
      <point x="428" y="132" type="curve" smooth="yes"/>
      <point x="428" y="171"/>
      <point x="434" y="320"/>
      <point x="440" y="417" type="curve"/>
      <point x="390" y="417"/>
      <point x="358" y="412"/>
      <point x="311" y="397" type="curve"/>
      <point x="311" y="118" type="line"/>
      <point x="290" y="102"/>
      <point x="263" y="94"/>
      <point x="232" y="94" type="curve" smooth="yes"/>
      <point x="191" y="94"/>
      <point x="174" y="112"/>
      <point x="174" y="156" type="curve" smooth="yes"/>
      <point x="174" y="416" type="line"/>
      <point x="123" y="416"/>
      <point x="83" y="410"/>
      <point x="43" y="397" type="curve"/>
      <point x="56" y="369"/>
      <point x="62" y="323"/>
      <point x="62" y="257" type="curve" smooth="yes"/>
      <point x="62" y="105"/>
      <point x="56" y="-13"/>
      <point x="56" y="-95" type="curve" smooth="yes"/>
      <point x="56" y="-150"/>
      <point x="79" y="-178"/>
      <point x="128" y="-178" type="curve" smooth="yes"/>
    </contour>
  </outline>
</glyph>
<glyph name="ordmasculine" format="1">
  <advance width="391"/>
  <unicode hex="00BA"/>
  <outline>
    <contour>
      <point x="280" y="293"/>
      <point x="349" y="353"/>
      <point x="349" y="440" type="curve" smooth="yes"/>
      <point x="349" y="519"/>
      <point x="292" y="572"/>
      <point x="206" y="572" type="curve" smooth="yes"/>
      <point x="110" y="572"/>
      <point x="43" y="511"/>
      <point x="43" y="425" type="curve" smooth="yes"/>
      <point x="43" y="346"/>
      <point x="99" y="293"/>
      <point x="182" y="293" type="curve" smooth="yes"/>
    </contour>
    <contour>
      <point x="156" y="335"/>
      <point x="131" y="367"/>
      <point x="131" y="415" type="curve" smooth="yes"/>
      <point x="131" y="464"/>
      <point x="159" y="494"/>
      <point x="203" y="494" type="curve"/>
      <point x="238" y="483"/>
      <point x="261" y="452"/>
      <point x="261" y="411" type="curve" smooth="yes"/>
      <point x="261" y="363"/>
      <point x="236" y="335"/>
      <point x="194" y="335" type="curve" smooth="yes"/>
    </contour>
  </outline>
</glyph>
<glyph name="AE" format="1">
  <advance width="703"/>
  <unicode hex="00C6"/>
  <outline>
    <contour>
      <point x="65" y="-4"/>
      <point x="79" y="-2"/>
      <point x="94" y="2" type="curve"/>
      <point x="104" y="31"/>
      <point x="119" y="74"/>
      <point x="137" y="123" type="curve"/>
      <point x="159" y="126"/>
      <point x="191" y="127"/>
      <point x="233" y="127" type="curve" smooth="yes"/>
      <point x="270" y="127"/>
      <point x="313" y="126"/>
      <point x="348" y="124" type="curve"/>
      <point x="367" y="75"/>
      <point x="382" y="31"/>
      <point x="391" y="2" type="curve"/>
      <point x="423" y="4"/>
      <point x="476" y="5"/>
      <point x="530" y="5" type="curve" smooth="yes"/>
      <point x="582" y="5"/>
      <point x="637" y="2"/>
      <point x="672" y="-3" type="curve"/>
      <point x="685" y="17"/>
      <point x="693" y="81"/>
      <point x="693" y="123" type="curve"/>
      <point x="642" y="104"/>
      <point x="587" y="97"/>
      <point x="491" y="97" type="curve"/>
      <point x="476" y="134"/>
      <point x="458" y="179"/>
      <point x="440" y="226" type="curve"/>
      <point x="500" y="226"/>
      <point x="546" y="225"/>
      <point x="610" y="219" type="curve"/>
      <point x="612" y="236"/>
      <point x="614" y="252"/>
      <point x="614" y="266" type="curve" smooth="yes"/>
      <point x="614" y="281"/>
      <point x="612" y="297"/>
      <point x="610" y="312" type="curve"/>
      <point x="571" y="305"/>
      <point x="544" y="301"/>
      <point x="471" y="301" type="curve" smooth="yes"/>
      <point x="452" y="301"/>
      <point x="431" y="301"/>
      <point x="411" y="302" type="curve"/>
      <point x="368" y="421" type="line"/>
      <point x="395" y="425"/>
      <point x="430" y="428"/>
      <point x="461" y="428" type="curve" smooth="yes"/>
      <point x="514" y="428"/>
      <point x="574" y="419"/>
      <point x="610" y="401" type="curve"/>
      <point x="623" y="420"/>
      <point x="631" y="485"/>
      <point x="631" y="527" type="curve"/>
      <point x="576" y="522"/>
      <point x="495" y="520"/>
      <point x="416" y="520" type="curve" smooth="yes"/>
      <point x="336" y="520"/>
      <point x="256" y="522"/>
      <point x="209" y="527" type="curve"/>
      <point x="170" y="409"/>
      <point x="45" y="75"/>
      <point x="4" y="2" type="curve"/>
      <point x="20" y="-2"/>
      <point x="37" y="-4"/>
      <point x="53" y="-4" type="curve" smooth="yes"/>
    </contour>
    <contour>
      <point x="236" y="199"/>
      <point x="199" y="201"/>
      <point x="166" y="203" type="curve"/>
      <point x="192" y="274"/>
      <point x="221" y="348"/>
      <point x="243" y="401" type="curve"/>
      <point x="264" y="352"/>
      <point x="292" y="276"/>
      <point x="320" y="201" type="curve"/>
      <point x="304" y="200"/>
      <point x="287" y="199"/>
      <point x="270" y="199" type="curve" smooth="yes"/>
    </contour>
    <contour>
      <point x="357" y="527" type="move" name="top"/>
    </contour>
    <contour>
      <point x="357" y="0" type="move" name="bottom"/>
    </contour>
  </outline>
</glyph>
<glyph name="germandbls" format="1">
  <advance width="552"/>
  <unicode hex="00DF"/>
  <outline>
    <contour>
      <point x="127" y="-98"/>
      <point x="163" y="-52"/>
      <point x="174" y="13" type="curve"/>
      <point x="212" y="-3"/>
      <point x="255" y="-11"/>
      <point x="301" y="-11" type="curve" smooth="yes"/>
      <point x="442" y="-11"/>
      <point x="518" y="48"/>
      <point x="518" y="158" type="curve" smooth="yes"/>
      <point x="518" y="235"/>
      <point x="459" y="299"/>
      <point x="376" y="310" type="curve"/>
      <point x="426" y="355" type="line" smooth="yes"/>
      <point x="479" y="403"/>
      <point x="500" y="436"/>
      <point x="500" y="473" type="curve" smooth="yes"/>
      <point x="500" y="503"/>
      <point x="489" y="530"/>
      <point x="470" y="546" type="curve"/>
      <point x="435" y="525"/>
      <point x="383" y="516"/>
      <point x="293" y="516" type="curve" smooth="yes"/>
      <point x="207" y="516"/>
      <point x="139" y="520"/>
      <point x="106" y="527" type="curve"/>
      <point x="77" y="488"/>
      <point x="53" y="449"/>
      <point x="53" y="369" type="curve" smooth="yes"/>
      <point x="53" y="261"/>
      <point x="62" y="157"/>
      <point x="62" y="93" type="curve" smooth="yes"/>
      <point x="62" y="-41"/>
      <point x="51" y="-83"/>
      <point x="20" y="-133" type="curve"/>
      <point x="51" y="-159" type="line"/>
    </contour>
    <contour>
      <point x="245" y="60"/>
      <point x="207" y="72"/>
      <point x="177" y="92" type="curve"/>
      <point x="176" y="136"/>
      <point x="172" y="199"/>
      <point x="172" y="282" type="curve" smooth="yes"/>
      <point x="172" y="335"/>
      <point x="173" y="375"/>
      <point x="174" y="406" type="curve"/>
      <point x="199" y="410"/>
      <point x="229" y="413"/>
      <point x="265" y="413" type="curve" smooth="yes"/>
      <point x="318" y="413"/>
      <point x="374" y="411"/>
      <point x="400" y="408" type="curve"/>
      <point x="263" y="289" type="line" smooth="yes"/>
      <point x="240" y="270"/>
      <point x="227" y="252"/>
      <point x="223" y="237" type="curve"/>
      <point x="223" y="226"/>
      <point x="252" y="209"/>
      <point x="271" y="209" type="curve"/>
      <point x="287" y="235"/>
      <point x="313" y="255"/>
      <point x="334" y="255" type="curve"/>
      <point x="369" y="238"/>
      <point x="390" y="203"/>
      <point x="390" y="158" type="curve" smooth="yes"/>
      <point x="390" y="96"/>
      <point x="352" y="60"/>
      <point x="287" y="60" type="curve" smooth="yes"/>
    </contour>
  </outline>
</glyph>
<glyph name="ae" format="1">
  <advance width="693"/>
  <unicode hex="00E6"/>
  <outline>
    <contour>
      <point x="176" y="-11"/>
      <point x="241" y="16"/>
      <point x="292" y="57" type="curve"/>
      <point x="324" y="13"/>
      <point x="375" y="-11"/>
      <point x="443" y="-11" type="curve" smooth="yes"/>
      <point x="520" y="-11"/>
      <point x="600" y="25"/>
      <point x="643" y="78" type="curve"/>
      <point x="630" y="131" type="line"/>
      <point x="592" y="105"/>
      <point x="541" y="92"/>
      <point x="484" y="92" type="curve" smooth="yes"/>
      <point x="426" y="92"/>
      <point x="394" y="115"/>
      <point x="383" y="169" type="curve"/>
      <point x="481" y="171"/>
      <point x="587" y="185"/>
      <point x="658" y="202" type="curve"/>
      <point x="658" y="344"/>
      <point x="598" y="418"/>
      <point x="483" y="418" type="curve" smooth="yes"/>
      <point x="431" y="418"/>
      <point x="384" y="404"/>
      <point x="347" y="377" type="curve"/>
      <point x="322" y="404"/>
      <point x="282" y="418"/>
      <point x="229" y="418" type="curve" smooth="yes"/>
      <point x="160" y="418"/>
      <point x="86" y="378"/>
      <point x="46" y="319" type="curve"/>
      <point x="54" y="266" type="line"/>
      <point x="88" y="289"/>
      <point x="137" y="303"/>
      <point x="182" y="303" type="curve" smooth="yes"/>
      <point x="243" y="303"/>
      <point x="258" y="276"/>
      <point x="258" y="220" type="curve"/>
      <point x="103" y="208"/>
      <point x="27" y="163"/>
      <point x="27" y="83" type="curve" smooth="yes"/>
      <point x="27" y="28"/>
      <point x="69" y="-11"/>
      <point x="127" y="-11" type="curve" smooth="yes"/>
    </contour>
    <contour>
      <point x="161" y="64"/>
      <point x="151" y="85"/>
      <point x="151" y="105" type="curve" smooth="yes"/>
      <point x="151" y="143"/>
      <point x="189" y="167"/>
      <point x="256" y="174" type="curve"/>
      <point x="257" y="145"/>
      <point x="262" y="118"/>
      <point x="271" y="96" type="curve"/>
      <point x="245" y="74"/>
      <point x="207" y="57"/>
      <point x="176" y="53" type="curve"/>
    </contour>
    <contour>
      <point x="378" y="279"/>
      <point x="398" y="331"/>
      <point x="436" y="356" type="curve"/>
      <point x="487" y="356"/>
      <point x="524" y="311"/>
      <point x="525" y="253" type="curve"/>
      <point x="490" y="237"/>
      <point x="432" y="223"/>
      <point x="378" y="218" type="curve"/>
    </contour>
    <contour>
      <point x="347" y="407" type="move" name="top"/>
    </contour>
    <contour>
      <point x="347" y="0" type="move" name="bottom"/>
    </contour>
  </outline>
</glyph>
<glyph name="gravecomb" format="1">
  <advance width="223"/>
  <unicode hex="0300"/>
  <outline>
    <contour>
      <point x="223" y="495" type="line"/>
      <point x="171" y="519"/>
      <point x="126" y="574"/>
      <point x="120" y="621" type="curve"/>
      <point x="63" y="621"/>
      <point x="21" y="602"/>
      <point x="0" y="567" type="curve"/>
      <point x="43" y="514"/>
      <point x="130" y="475"/>
      <point x="213" y="464" type="curve"/>
    </contour>
    <contour>
      <point x="112" y="608" type="move" name="top"/>
    </contour>
    <contour>
      <point x="118" y="407" type="move" name="_top"/>
    </contour>
  </outline>
</glyph>
<glyph name="uni0302" format="1">
  <advance width="289"/>
  <unicode hex="0302"/>
  <outline>
    <contour>
      <point x="125" y="552" type="line"/>
      <point x="177" y="476" type="line"/>
      <point x="221" y="476"/>
      <point x="258" y="480"/>
      <point x="289" y="490" type="curve"/>
      <point x="267" y="513"/>
      <point x="227" y="571"/>
      <point x="201" y="616" type="curve"/>
      <point x="157" y="616"/>
      <point x="120" y="613"/>
      <point x="89" y="603" type="curve"/>
      <point x="65" y="568"/>
      <point x="29" y="518"/>
      <point x="0" y="484" type="curve"/>
      <point x="32" y="478"/>
      <point x="51" y="476"/>
      <point x="77" y="476" type="curve"/>
    </contour>
    <contour>
      <point x="144" y="616" type="move" name="top"/>
    </contour>
    <contour>
      <point x="144" y="407" type="move" name="_top"/>
    </contour>
  </outline>
</glyph>
<glyph name="tildecomb" format="1">
  <advance width="298"/>
  <unicode hex="0303"/>
  <outline>
    <contour>
      <point x="64" y="604"/>
      <point x="263" y="357"/>
      <point x="290" y="586" type="curve"/>
      <point x="262" y="598" type="line"/>
      <point x="242" y="500"/>
      <point x="44" y="747"/>
      <point x="16" y="518" type="curve"/>
      <point x="45" y="506" type="line"/>
    </contour>
    <contour>
      <point x="154" y="607" type="move" name="top"/>
    </contour>
    <contour>
      <point x="154" y="407" type="move" name="_top"/>
    </contour>
  </outline>
</glyph>
<glyph name="uni0338" format="1">
  <advance width="328"/>
  <unicode hex="0338"/>
  <outline>
    <contour>
      <point x="40" y="-100"/>
      <point x="59" y="-96"/>
      <point x="77" y="-91" type="curve"/>
      <point x="99" y="3"/>
      <point x="280" y="434"/>
      <point x="351" y="592" type="curve"/>
      <point x="334" y="597"/>
      <point x="320" y="601"/>
      <point x="306" y="601" type="curve" smooth="yes"/>
      <point x="288" y="601"/>
      <point x="268" y="597"/>
      <point x="250" y="592" type="curve"/>
      <point x="229" y="498"/>
      <point x="47" y="67"/>
      <point x="-24" y="-91" type="curve"/>
      <point x="-7" y="-96"/>
      <point x="8" y="-100"/>
      <point x="22" y="-100" type="curve" smooth="yes"/>
    </contour>
    <contour>
      <point x="164" y="251" type="move" name="_center"/>
    </contour>
  </outline>
</glyph>
<glyph name="pi" format="1">
  <advance width="560"/>
  <unicode hex="03C0"/>
  <outline>
    <contour>
      <point x="183" y="-6"/>
      <point x="205" y="-4"/>
      <point x="228" y="-1" type="curve"/>
      <point x="217" y="21"/>
      <point x="212" y="79"/>
      <point x="212" y="176" type="curve" smooth="yes"/>
      <point x="212" y="214"/>
      <point x="213" y="258"/>
      <point x="215" y="298" type="curve"/>
      <point x="346" y="298" type="line"/>
      <point x="347" y="277"/>
      <point x="348" y="254"/>
      <point x="348" y="227" type="curve" smooth="yes"/>
      <point x="348" y="152"/>
      <point x="342" y="54"/>
      <point x="338" y="-1" type="curve"/>
      <point x="365" y="-4"/>
      <point x="391" y="-6"/>
      <point x="412" y="-6" type="curve" smooth="yes"/>
      <point x="434" y="-6"/>
      <point x="456" y="-4"/>
      <point x="478" y="-1" type="curve"/>
      <point x="467" y="21"/>
      <point x="462" y="79"/>
      <point x="462" y="176" type="curve" smooth="yes"/>
      <point x="462" y="213"/>
      <point x="463" y="259"/>
      <point x="465" y="298" type="curve"/>
      <point x="504" y="293" type="line"/>
      <point x="527" y="333"/>
      <point x="540" y="380"/>
      <point x="540" y="426" type="curve"/>
      <point x="494" y="416"/>
      <point x="390" y="407"/>
      <point x="298" y="407" type="curve" smooth="yes"/>
      <point x="218" y="407"/>
      <point x="141" y="408"/>
      <point x="56" y="412" type="curve"/>
      <point x="34" y="372"/>
      <point x="20" y="326"/>
      <point x="20" y="279" type="curve"/>
      <point x="37" y="283"/>
      <point x="64" y="287"/>
      <point x="96" y="290" type="curve"/>
      <point x="97" y="271"/>
      <point x="97" y="251"/>
      <point x="97" y="227" type="curve" smooth="yes"/>
      <point x="97" y="152"/>
      <point x="91" y="54"/>
      <point x="87" y="-1" type="curve"/>
      <point x="114" y="-4"/>
      <point x="140" y="-6"/>
      <point x="162" y="-6" type="curve" smooth="yes"/>
    </contour>
  </outline>
</glyph>
<glyph name="endash" format="1">
  <advance width="543"/>
  <unicode hex="2013"/>
  <outline>
    <contour>
      <point x="104" y="135"/>
      <point x="195" y="144"/>
      <point x="280" y="144" type="curve" smooth="yes"/>
      <point x="351" y="144"/>
      <point x="423" y="143"/>
      <point x="502" y="139" type="curve"/>
      <point x="502" y="185"/>
      <point x="496" y="225"/>
      <point x="475" y="271" type="curve"/>
      <point x="439" y="261"/>
      <point x="348" y="252"/>
      <point x="264" y="252" type="curve" smooth="yes"/>
      <point x="192" y="252"/>
      <point x="121" y="253"/>
      <point x="42" y="257" type="curve"/>
      <point x="42" y="211"/>
      <point x="48" y="171"/>
      <point x="68" y="125" type="curve"/>
    </contour>
  </outline>
</glyph>
<glyph name="bullet" format="1">
  <advance width="357"/>
  <unicode hex="2022"/>
  <outline>
    <contour>
      <point x="235" y="175"/>
      <point x="281" y="222"/>
      <point x="327" y="277" type="curve"/>
      <point x="272" y="323"/>
      <point x="225" y="370"/>
      <point x="179" y="426" type="curve"/>
      <point x="123" y="380"/>
      <point x="76" y="334"/>
      <point x="30" y="277" type="curve"/>
      <point x="86" y="231"/>
      <point x="133" y="185"/>
      <point x="179" y="129" type="curve"/>
    </contour>
  </outline>
</glyph>
<glyph name="trademark" format="1">
  <advance width="689"/>
  <unicode hex="2122"/>
  <outline>
    <contour>
      <point x="331" y="323"/>
      <point x="340" y="324"/>
      <point x="348" y="326" type="curve"/>
      <point x="344" y="341"/>
      <point x="342" y="380"/>
      <point x="342" y="440" type="curve" smooth="yes"/>
      <point x="342" y="461"/>
      <point x="342" y="483"/>
      <point x="343" y="505" type="curve"/>
      <point x="376" y="442"/>
      <point x="415" y="363"/>
      <point x="432" y="326" type="curve"/>
      <point x="436" y="325"/>
      <point x="440" y="324"/>
      <point x="445" y="324" type="curve" smooth="yes"/>
      <point x="449" y="324"/>
      <point x="454" y="325"/>
      <point x="459" y="326" type="curve"/>
      <point x="478" y="366"/>
      <point x="522" y="457"/>
      <point x="556" y="522" type="curve"/>
      <point x="556" y="507"/>
      <point x="557" y="492"/>
      <point x="557" y="476" type="curve" smooth="yes"/>
      <point x="557" y="424"/>
      <point x="554" y="359"/>
      <point x="551" y="326" type="curve"/>
      <point x="565" y="324"/>
      <point x="577" y="323"/>
      <point x="588" y="323" type="curve" smooth="yes"/>
      <point x="600" y="323"/>
      <point x="613" y="324"/>
      <point x="626" y="326" type="curve"/>
      <point x="620" y="341"/>
      <point x="617" y="380"/>
      <point x="617" y="440" type="curve" smooth="yes"/>
      <point x="617" y="492"/>
      <point x="620" y="557"/>
      <point x="623" y="590" type="curve"/>
      <point x="608" y="592"/>
      <point x="595" y="593"/>
      <point x="583" y="593" type="curve" smooth="yes"/>
      <point x="570" y="593"/>
      <point x="557" y="592"/>
      <point x="548" y="590" type="curve"/>
      <point x="531" y="553"/>
      <point x="488" y="466"/>
      <point x="458" y="408" type="curve"/>
      <point x="429" y="462"/>
      <point x="386" y="553"/>
      <point x="369" y="590" type="curve"/>
      <point x="355" y="592"/>
      <point x="342" y="593"/>
      <point x="331" y="593" type="curve" smooth="yes"/>
      <point x="319" y="593"/>
      <point x="308" y="592"/>
      <point x="297" y="590" type="curve"/>
      <point x="302" y="562"/>
      <point x="303" y="526"/>
      <point x="303" y="473" type="curve" smooth="yes"/>
      <point x="303" y="422"/>
      <point x="302" y="358"/>
      <point x="299" y="326" type="curve"/>
      <point x="308" y="324"/>
      <point x="316" y="323"/>
      <point x="323" y="323" type="curve" smooth="yes"/>
    </contour>
    <contour>
      <point x="162" y="323"/>
      <point x="175" y="324"/>
      <point x="185" y="326" type="curve"/>
      <point x="179" y="341"/>
      <point x="176" y="378"/>
      <point x="176" y="440" type="curve" smooth="yes"/>
      <point x="176" y="471"/>
      <point x="177" y="509"/>
      <point x="179" y="539" type="curve"/>
      <point x="210" y="538"/>
      <point x="242" y="537"/>
      <point x="261" y="535" type="curve"/>
      <point x="263" y="544"/>
      <point x="264" y="555"/>
      <point x="264" y="564" type="curve" smooth="yes"/>
      <point x="264" y="573"/>
      <point x="263" y="581"/>
      <point x="261" y="591" type="curve"/>
      <point x="248" y="587"/>
      <point x="215" y="585"/>
      <point x="162" y="585" type="curve" smooth="yes"/>
      <point x="117" y="585"/>
      <point x="60" y="587"/>
      <point x="31" y="589" type="curve"/>
      <point x="29" y="580"/>
      <point x="28" y="572"/>
      <point x="28" y="564" type="curve" smooth="yes"/>
      <point x="28" y="555"/>
      <point x="29" y="544"/>
      <point x="31" y="533" type="curve"/>
      <point x="42" y="537"/>
      <point x="70" y="539"/>
      <point x="114" y="540" type="curve"/>
      <point x="115" y="523"/>
      <point x="116" y="502"/>
      <point x="116" y="476" type="curve" smooth="yes"/>
      <point x="116" y="426"/>
      <point x="113" y="360"/>
      <point x="110" y="326" type="curve"/>
      <point x="125" y="324"/>
      <point x="137" y="323"/>
      <point x="148" y="323" type="curve" smooth="yes"/>
    </contour>
  </outline>
</glyph>
<glyph name="emptyset" format="1">
  <advance width="595"/>
  <unicode hex="2205"/>
  <outline>
    <contour>
      <point x="447" y="-11"/>
      <point x="566" y="109"/>
      <point x="566" y="279" type="curve" smooth="yes"/>
      <point x="566" y="432"/>
      <point x="469" y="534"/>
      <point x="325" y="534" type="curve" smooth="yes"/>
      <point x="150" y="534"/>
      <point x="28" y="417"/>
      <point x="28" y="251" type="curve" smooth="yes"/>
      <point x="28" y="95"/>
      <point x="128" y="-11"/>
      <point x="277" y="-11" type="curve" smooth="yes"/>
    </contour>
    <contour>
      <point x="190" y="98"/>
      <point x="126" y="161"/>
      <point x="126" y="254" type="curve" smooth="yes"/>
      <point x="126" y="354"/>
      <point x="204" y="424"/>
      <point x="316" y="424" type="curve" smooth="yes"/>
      <point x="407" y="424"/>
      <point x="469" y="363"/>
      <point x="469" y="272" type="curve" smooth="yes"/>
      <point x="469" y="169"/>
      <point x="393" y="98"/>
      <point x="285" y="98" type="curve" smooth="yes"/>
    </contour>
    <component base="fraction" xOffset="260" yOffset="11"/>
  </outline>
</glyph>
<glyph name="product" format="1">
  <advance width="560"/>
  <unicode hex="220F"/>
  <outline>
    <contour>
      <point x="64" y="424"/>
      <point x="168" y="433"/>
      <point x="262" y="433" type="curve" smooth="yes"/>
      <point x="341" y="433"/>
      <point x="418" y="432"/>
      <point x="504" y="428" type="curve"/>
      <point x="527" y="468"/>
      <point x="540" y="515"/>
      <point x="540" y="561" type="curve"/>
      <point x="494" y="551"/>
      <point x="390" y="542"/>
      <point x="298" y="542" type="curve" smooth="yes"/>
      <point x="218" y="542"/>
      <point x="141" y="543"/>
      <point x="56" y="547" type="curve"/>
      <point x="34" y="507"/>
      <point x="20" y="461"/>
      <point x="20" y="414" type="curve"/>
    </contour>
    <component base="I" xOffset="29"/>
    <component base="I" xOffset="280"/>
  </outline>
</glyph>
<glyph name="summation" format="1">
  <advance width="529"/>
  <unicode hex="2211"/>
  <outline>
    <contour>
      <point x="458" y="35"/>
      <point x="469" y="82"/>
      <point x="467" y="128" type="curve"/>
      <point x="416" y="116"/>
      <point x="338" y="109"/>
      <point x="271" y="109" type="curve" smooth="yes"/>
      <point x="236" y="109"/>
      <point x="209" y="110"/>
      <point x="164" y="113" type="curve"/>
      <point x="403" y="286" type="line"/>
      <point x="350" y="325"/>
      <point x="303" y="371"/>
      <point x="252" y="433" type="curve"/>
      <point x="330" y="433"/>
      <point x="379" y="432"/>
      <point x="454" y="428" type="curve"/>
      <point x="475" y="469"/>
      <point x="486" y="516"/>
      <point x="484" y="561" type="curve"/>
      <point x="433" y="550"/>
      <point x="356" y="542"/>
      <point x="289" y="542" type="curve" smooth="yes"/>
      <point x="213" y="542"/>
      <point x="165" y="543"/>
      <point x="92" y="547" type="curve"/>
      <point x="72" y="506"/>
      <point x="61" y="459"/>
      <point x="63" y="414" type="curve"/>
      <point x="106" y="386"/>
      <point x="140" y="354"/>
      <point x="230" y="249" type="curve"/>
      <point x="151" y="192"/>
      <point x="78" y="130"/>
      <point x="55" y="95" type="curve"/>
      <point x="47" y="68"/>
      <point x="43" y="32"/>
      <point x="45" y="0" type="curve"/>
      <point x="241" y="0" type="line" smooth="yes"/>
      <point x="315" y="0"/>
      <point x="365" y="-1"/>
      <point x="437" y="-5" type="curve"/>
    </contour>
  </outline>
</glyph>
<glyph name="lozenge" format="1">
  <advance width="503"/>
  <unicode hex="25CA"/>
  <outline>
    <contour>
      <point x="274" y="-8"/>
      <point x="297" y="-5"/>
      <point x="320" y="0" type="curve"/>
      <point x="359" y="88"/>
      <point x="409" y="176"/>
      <point x="469" y="264" type="curve"/>
      <point x="409" y="352"/>
      <point x="359" y="439"/>
      <point x="320" y="527" type="curve"/>
      <point x="297" y="532"/>
      <point x="274" y="535"/>
      <point x="251" y="535" type="curve" smooth="yes"/>
      <point x="228" y="535"/>
      <point x="205" y="532"/>
      <point x="182" y="527" type="curve"/>
      <point x="143" y="439"/>
      <point x="93" y="352"/>
      <point x="33" y="264" type="curve"/>
      <point x="93" y="176"/>
      <point x="143" y="88"/>
      <point x="182" y="0" type="curve"/>
      <point x="205" y="-5"/>
      <point x="228" y="-8"/>
      <point x="251" y="-8" type="curve" smooth="yes"/>
    </contour>
    <contour>
      <point x="152" y="264" type="line"/>
      <point x="251" y="438" type="line"/>
      <point x="350" y="264" type="line"/>
      <point x="251" y="89" type="line"/>
    </contour>
  </outline>
</glyph>
<glyph name="fl" format="1">
  <advance width="527"/>
  <unicode hex="FB02"/>
  <outline>
    <contour>
      <point x="172" y="-83"/>
      <point x="205" y="-31"/>
      <point x="205" y="63" type="curve" smooth="yes"/>
      <point x="205" y="108"/>
      <point x="198" y="178"/>
      <point x="198" y="282" type="curve" smooth="yes"/>
      <point x="198" y="330" type="line"/>
      <point x="239" y="329"/>
      <point x="267" y="325"/>
      <point x="291" y="318" type="curve"/>
      <point x="303" y="347"/>
      <point x="308" y="371"/>
      <point x="308" y="404" type="curve"/>
      <point x="284" y="400"/>
      <point x="247" y="397"/>
      <point x="200" y="396" type="curve"/>
      <point x="204" y="469"/>
      <point x="213" y="494"/>
      <point x="233" y="509" type="curve"/>
      <point x="266" y="506"/>
      <point x="297" y="494"/>
      <point x="342" y="471" type="curve"/>
      <point x="348" y="427"/>
      <point x="350" y="370"/>
      <point x="350" y="297" type="curve" smooth="yes"/>
      <point x="350" y="208"/>
      <point x="346" y="144"/>
      <point x="346" y="73" type="curve" smooth="yes"/>
      <point x="346" y="10"/>
      <point x="366" y="-9"/>
      <point x="417" y="-9" type="curve" smooth="yes"/>
      <point x="438" y="-9"/>
      <point x="473" y="0"/>
      <point x="502" y="27" type="curve"/>
      <point x="471" y="61"/>
      <point x="463" y="84"/>
      <point x="463" y="192" type="curve" smooth="yes"/>
      <point x="463" y="356"/>
      <point x="468" y="485"/>
      <point x="475" y="547" type="curve"/>
      <point x="415" y="572"/>
      <point x="347" y="585"/>
      <point x="271" y="585" type="curve" smooth="yes"/>
      <point x="165" y="585"/>
      <point x="96" y="516"/>
      <point x="78" y="408" type="curve"/>
      <point x="58" y="393"/>
      <point x="37" y="380"/>
      <point x="12" y="368" type="curve"/>
      <point x="12" y="335"/>
      <point x="22" y="328"/>
      <point x="78" y="327" type="curve"/>
      <point x="94" y="-5"/>
      <point x="87" y="-61"/>
      <point x="38" y="-133" type="curve"/>
      <point x="66" y="-159" type="line"/>
    </contour>
  </outline>
</glyph>
<glyph name="f_f" format="1">
  <advance width="564"/>
  <outline>
    <contour>
      <point x="172" y="-83"/>
      <point x="205" y="-31"/>
      <point x="205" y="63" type="curve" smooth="yes"/>
      <point x="205" y="108"/>
      <point x="198" y="178"/>
      <point x="198" y="282" type="curve" smooth="yes"/>
      <point x="198" y="330" type="line"/>
      <point x="348" y="330" type="line"/>
      <point x="364" y="-5"/>
      <point x="357" y="-61"/>
      <point x="308" y="-133" type="curve"/>
      <point x="336" y="-159" type="line"/>
      <point x="442" y="-83"/>
      <point x="475" y="-31"/>
      <point x="475" y="63" type="curve" smooth="yes"/>
      <point x="475" y="108"/>
      <point x="468" y="178"/>
      <point x="468" y="282" type="curve" smooth="yes"/>
      <point x="468" y="330" type="line"/>
      <point x="507" y="329"/>
      <point x="535" y="325"/>
      <point x="557" y="318" type="curve"/>
      <point x="569" y="347"/>
      <point x="574" y="371"/>
      <point x="574" y="404" type="curve"/>
      <point x="551" y="400"/>
      <point x="515" y="397"/>
      <point x="470" y="396" type="curve"/>
      <point x="474" y="469"/>
      <point x="483" y="494"/>
      <point x="503" y="509" type="curve"/>
      <point x="533" y="505"/>
      <point x="566" y="487"/>
      <point x="617" y="448" type="curve"/>
      <point x="631" y="472"/>
      <point x="646" y="534"/>
      <point x="646" y="564" type="curve"/>
      <point x="615" y="578"/>
      <point x="578" y="585"/>
      <point x="537" y="585" type="curve" smooth="yes"/>
      <point x="495" y="585"/>
      <point x="458" y="572"/>
      <point x="428" y="550" type="curve"/>
      <point x="380" y="573"/>
      <point x="326" y="585"/>
      <point x="267" y="585" type="curve" smooth="yes"/>
      <point x="170" y="585"/>
      <point x="96" y="516"/>
      <point x="78" y="408" type="curve"/>
      <point x="58" y="393"/>
      <point x="37" y="380"/>
      <point x="12" y="368" type="curve"/>
      <point x="12" y="335"/>
      <point x="22" y="328"/>
      <point x="78" y="327" type="curve"/>
      <point x="94" y="-5"/>
      <point x="87" y="-61"/>
      <point x="38" y="-133" type="curve"/>
      <point x="66" y="-159" type="line"/>
    </contour>
    <contour>
      <point x="206" y="460"/>
      <point x="217" y="482"/>
      <point x="240" y="496" type="curve"/>
      <point x="380" y="496" type="line"/>
      <point x="363" y="468"/>
      <point x="351" y="435"/>
      <point x="346" y="397" type="curve"/>
      <point x="201" y="397" type="line"/>
    </contour>
  </outline>
</glyph>
<glyph name="f_f_i" format="1">
  <advance width="800"/>
  <outline>
    <contour>
      <point x="172" y="-83"/>
      <point x="205" y="-31"/>
      <point x="205" y="63" type="curve" smooth="yes"/>
      <point x="205" y="108"/>
      <point x="198" y="178"/>
      <point x="198" y="282" type="curve" smooth="yes"/>
      <point x="198" y="330" type="line"/>
      <point x="352" y="330" type="line"/>
      <point x="367" y="-5"/>
      <point x="361" y="-61"/>
      <point x="311" y="-133" type="curve"/>
      <point x="340" y="-159" type="line"/>
      <point x="445" y="-83"/>
      <point x="479" y="-31"/>
      <point x="479" y="63" type="curve" smooth="yes"/>
      <point x="479" y="108"/>
      <point x="472" y="178"/>
      <point x="472" y="282" type="curve" smooth="yes"/>
      <point x="472" y="330" type="line"/>
      <point x="622" y="330" type="line"/>
      <point x="623" y="312"/>
      <point x="624" y="291"/>
      <point x="624" y="272" type="curve" smooth="yes"/>
      <point x="624" y="208"/>
      <point x="620" y="144"/>
      <point x="620" y="73" type="curve" smooth="yes"/>
      <point x="620" y="10"/>
      <point x="640" y="-9"/>
      <point x="690" y="-9" type="curve" smooth="yes"/>
      <point x="711" y="-9"/>
      <point x="747" y="0"/>
      <point x="775" y="27" type="curve"/>
      <point x="744" y="61"/>
      <point x="736" y="84"/>
      <point x="736" y="192" type="curve" smooth="yes"/>
      <point x="736" y="294"/>
      <point x="741" y="379"/>
      <point x="748" y="417" type="curve"/>
      <point x="701" y="417"/>
      <point x="662" y="413"/>
      <point x="615" y="397" type="curve"/>
      <point x="474" y="397" type="line"/>
      <point x="477" y="469"/>
      <point x="487" y="494"/>
      <point x="507" y="509" type="curve"/>
      <point x="545" y="505"/>
      <point x="587" y="485"/>
      <point x="654" y="445" type="curve"/>
      <point x="671" y="469"/>
      <point x="690" y="530"/>
      <point x="690" y="561" type="curve"/>
      <point x="647" y="577"/>
      <point x="596" y="585"/>
      <point x="540" y="585" type="curve" smooth="yes"/>
      <point x="498" y="585"/>
      <point x="460" y="572"/>
      <point x="430" y="549" type="curve"/>
      <point x="382" y="572"/>
      <point x="327" y="585"/>
      <point x="267" y="585" type="curve" smooth="yes"/>
      <point x="170" y="585"/>
      <point x="96" y="516"/>
      <point x="78" y="408" type="curve"/>
      <point x="58" y="393"/>
      <point x="37" y="380"/>
      <point x="12" y="368" type="curve"/>
      <point x="12" y="335"/>
      <point x="22" y="328"/>
      <point x="78" y="327" type="curve"/>
      <point x="94" y="-5"/>
      <point x="87" y="-61"/>
      <point x="38" y="-133" type="curve"/>
      <point x="66" y="-159" type="line"/>
    </contour>
    <contour>
      <point x="206" y="460"/>
      <point x="217" y="482"/>
      <point x="240" y="496" type="curve"/>
      <point x="383" y="496" type="line"/>
      <point x="366" y="468"/>
      <point x="354" y="435"/>
      <point x="350" y="397" type="curve"/>
      <point x="201" y="397" type="line"/>
    </contour>
  </outline>
</glyph>
<glyph name="f_j" format="1">
  <advance width="527"/>
  <outline>
    <contour>
      <point x="414" y="-111"/>
      <point x="481" y="-63"/>
      <point x="481" y="63" type="curve" smooth="yes"/>
      <point x="481" y="110"/>
      <point x="478" y="129"/>
      <point x="478" y="172" type="curve" smooth="yes"/>
      <point x="478" y="257"/>
      <point x="480" y="374"/>
      <point x="485" y="417" type="curve"/>
      <point x="435" y="417"/>
      <point x="392" y="413"/>
      <point x="341" y="397" type="curve"/>
      <point x="200" y="397" type="line"/>
      <point x="204" y="469"/>
      <point x="213" y="494"/>
      <point x="233" y="509" type="curve"/>
      <point x="271" y="505"/>
      <point x="314" y="485"/>
      <point x="381" y="445" type="curve"/>
      <point x="397" y="469"/>
      <point x="416" y="530"/>
      <point x="416" y="561" type="curve"/>
      <point x="374" y="577"/>
      <point x="323" y="585"/>
      <point x="267" y="585" type="curve" smooth="yes"/>
      <point x="170" y="585"/>
      <point x="96" y="516"/>
      <point x="78" y="408" type="curve"/>
      <point x="58" y="393"/>
      <point x="37" y="380"/>
      <point x="12" y="368" type="curve"/>
      <point x="12" y="335"/>
      <point x="22" y="328"/>
      <point x="78" y="327" type="curve"/>
      <point x="94" y="-5"/>
      <point x="87" y="-61"/>
      <point x="38" y="-133" type="curve"/>
      <point x="66" y="-159" type="line"/>
      <point x="172" y="-83"/>
      <point x="205" y="-31"/>
      <point x="205" y="63" type="curve" smooth="yes"/>
      <point x="205" y="108"/>
      <point x="198" y="178"/>
      <point x="198" y="282" type="curve" smooth="yes"/>
      <point x="198" y="330" type="line"/>
      <point x="358" y="330" type="line"/>
      <point x="361" y="288"/>
      <point x="362" y="221"/>
      <point x="362" y="106" type="curve" smooth="yes"/>
      <point x="362" y="-46"/>
      <point x="329" y="-98"/>
      <point x="263" y="-158" type="curve"/>
      <point x="281" y="-189" type="line"/>
    </contour>
  </outline>
</glyph>
<glyph name="five.dnom" format="1">
  <advance width="357"/>
  <outline>
    <contour>
      <point x="248" y="-6"/>
      <point x="292" y="26"/>
      <point x="292" y="84" type="curve" smooth="yes"/>
      <point x="292" y="129"/>
      <point x="255" y="167"/>
      <point x="194" y="167" type="curve" smooth="yes"/>
      <point x="165" y="167"/>
      <point x="137" y="159"/>
      <point x="115" y="144" type="curve"/>
      <point x="119" y="198" type="line"/>
      <point x="205" y="198" type="line" smooth="yes"/>
      <point x="234" y="198"/>
      <point x="251" y="195"/>
      <point x="264" y="189" type="curve"/>
      <point x="277" y="209"/>
      <point x="285" y="245"/>
      <point x="285" y="274" type="curve"/>
      <point x="266" y="270"/>
      <point x="228" y="268"/>
      <point x="184" y="268" type="curve" smooth="yes"/>
      <point x="130" y="268"/>
      <point x="101" y="270"/>
      <point x="87" y="274" type="curve"/>
      <point x="78" y="117" type="line"/>
      <point x="113" y="99" type="line"/>
      <point x="134" y="115"/>
      <point x="157" y="125"/>
      <point x="171" y="125" type="curve"/>
      <point x="196" y="116"/>
      <point x="204" y="102"/>
      <point x="204" y="86" type="curve" smooth="yes"/>
      <point x="204" y="60"/>
      <point x="184" y="45"/>
      <point x="151" y="45" type="curve" smooth="yes"/>
      <point x="117" y="45"/>
      <point x="86" y="57"/>
      <point x="69" y="77" type="curve"/>
      <point x="63" y="57"/>
      <point x="60" y="41"/>
      <point x="60" y="18" type="curve"/>
      <point x="90" y="3"/>
      <point x="126" y="-6"/>
      <point x="164" y="-6" type="curve" smooth="yes"/>
    </contour>
  </outline>
</glyph>
<glyph name="six.dnom" format="1">
  <advance width="357"/>
  <outline>
    <contour>
      <point x="256" y="-5"/>
      <point x="309" y="33"/>
      <point x="309" y="87" type="curve" smooth="yes"/>
      <point x="309" y="138"/>
      <point x="269" y="173"/>
      <point x="208" y="173" type="curve" smooth="yes"/>
      <point x="182" y="173"/>
      <point x="157" y="166"/>
      <point x="134" y="151" type="curve"/>
      <point x="142" y="185"/>
      <point x="160" y="208"/>
      <point x="188" y="218" type="curve"/>
      <point x="205" y="218"/>
      <point x="238" y="202"/>
      <point x="264" y="181" type="curve"/>
      <point x="279" y="197"/>
      <point x="293" y="238"/>
      <point x="293" y="265" type="curve"/>
      <point x="272" y="273"/>
      <point x="245" y="277"/>
      <point x="213" y="277" type="curve" smooth="yes"/>
      <point x="105" y="277"/>
      <point x="44" y="220"/>
      <point x="44" y="126" type="curve" smooth="yes"/>
      <point x="44" y="48"/>
      <point x="98" y="-5"/>
      <point x="179" y="-5" type="curve" smooth="yes"/>
    </contour>
    <contour>
      <point x="150" y="42"/>
      <point x="132" y="69"/>
      <point x="131" y="113" type="curve"/>
      <point x="144" y="123"/>
      <point x="159" y="131"/>
      <point x="174" y="136" type="curve"/>
      <point x="203" y="136"/>
      <point x="221" y="118"/>
      <point x="221" y="91" type="curve" smooth="yes"/>
      <point x="221" y="61"/>
      <point x="206" y="42"/>
      <point x="181" y="42" type="curve" smooth="yes"/>
    </contour>
  </outline>
</glyph>
<glyph name="three.dnom" format="1">
  <advance width="357"/>
  <outline>
    <contour>
      <point x="250" y="-6"/>
      <point x="298" y="27"/>
      <point x="298" y="87" type="curve" smooth="yes"/>
      <point x="298" y="119"/>
      <point x="274" y="152"/>
      <point x="224" y="163" type="curve"/>
      <point x="265" y="186"/>
      <point x="290" y="205"/>
      <point x="290" y="241" type="curve" smooth="yes"/>
      <point x="290" y="256"/>
      <point x="283" y="273"/>
      <point x="273" y="284" type="curve"/>
      <point x="250" y="274"/>
      <point x="215" y="268"/>
      <point x="161" y="268" type="curve" smooth="yes"/>
      <point x="115" y="268"/>
      <point x="78" y="270"/>
      <point x="61" y="274" type="curve"/>
      <point x="61" y="244"/>
      <point x="69" y="211"/>
      <point x="80" y="189" type="curve"/>
      <point x="93" y="195"/>
      <point x="113" y="198"/>
      <point x="147" y="198" type="curve" smooth="yes"/>
      <point x="218" y="198" type="line"/>
      <point x="143" y="151" type="line" smooth="yes"/>
      <point x="119" y="137"/>
      <point x="113" y="125"/>
      <point x="112" y="117" type="curve" smooth="yes"/>
      <point x="112" y="109"/>
      <point x="135" y="98"/>
      <point x="151" y="98" type="curve"/>
      <point x="160" y="114"/>
      <point x="176" y="121"/>
      <point x="181" y="121" type="curve"/>
      <point x="199" y="115"/>
      <point x="210" y="101"/>
      <point x="210" y="85" type="curve" smooth="yes"/>
      <point x="210" y="59"/>
      <point x="188" y="45"/>
      <point x="149" y="45" type="curve" smooth="yes"/>
      <point x="113" y="45"/>
      <point x="82" y="57"/>
      <point x="65" y="77" type="curve"/>
      <point x="57" y="58"/>
      <point x="54" y="41"/>
      <point x="54" y="18" type="curve"/>
      <point x="86" y="1"/>
      <point x="123" y="-6"/>
      <point x="163" y="-6" type="curve" smooth="yes"/>
    </contour>
  </outline>
</glyph>
<glyph name="two.dnom" format="1">
  <advance width="357"/>
  <outline>
    <contour>
      <point x="305" y="14"/>
      <point x="310" y="52"/>
      <point x="310" y="80" type="curve"/>
      <point x="284" y="72"/>
      <point x="242" y="66"/>
      <point x="206" y="66" type="curve" smooth="yes"/>
      <point x="195" y="66"/>
      <point x="185" y="66"/>
      <point x="176" y="68" type="curve"/>
      <point x="252" y="105"/>
      <point x="297" y="153"/>
      <point x="297" y="202" type="curve" smooth="yes"/>
      <point x="297" y="247"/>
      <point x="251" y="276"/>
      <point x="180" y="276" type="curve" smooth="yes"/>
      <point x="137" y="276"/>
      <point x="90" y="269"/>
      <point x="56" y="256" type="curve"/>
      <point x="56" y="231"/>
      <point x="67" y="193"/>
      <point x="85" y="173" type="curve"/>
      <point x="118" y="196"/>
      <point x="155" y="214"/>
      <point x="182" y="218" type="curve"/>
      <point x="199" y="218"/>
      <point x="209" y="208"/>
      <point x="209" y="194" type="curve" smooth="yes"/>
      <point x="209" y="152"/>
      <point x="157" y="97"/>
      <point x="53" y="30" type="curve"/>
      <point x="53" y="0" type="line"/>
      <point x="116" y="4"/>
      <point x="265" y="2"/>
      <point x="300" y="-3" type="curve"/>
    </contour>
  </outline>
</glyph>
<glyph name="zero.dnom" format="1">
  <advance width="357"/>
  <outline>
    <contour>
      <point x="263" y="-6"/>
      <point x="329" y="56"/>
      <point x="329" y="145" type="curve" smooth="yes"/>
      <point x="329" y="224"/>
      <point x="274" y="277"/>
      <point x="195" y="277" type="curve" smooth="yes"/>
      <point x="97" y="277"/>
      <point x="28" y="216"/>
      <point x="28" y="130" type="curve" smooth="yes"/>
      <point x="28" y="50"/>
      <point x="84" y="-6"/>
      <point x="167" y="-6" type="curve" smooth="yes"/>
    </contour>
    <contour>
      <point x="142" y="67"/>
      <point x="118" y="98"/>
      <point x="118" y="148" type="curve" smooth="yes"/>
      <point x="118" y="192"/>
      <point x="145" y="228"/>
      <point x="184" y="228" type="curve"/>
      <point x="219" y="220"/>
      <point x="239" y="188"/>
      <point x="239" y="145" type="curve" smooth="yes"/>
      <point x="239" y="96"/>
      <point x="216" y="67"/>
      <point x="177" y="67" type="curve" smooth="yes"/>
    </contour>
  </outline>
</glyph>
